<?xml version="1.0" encoding="UTF-8"?>
<svg version="1.1" xmlns="http://www.w3.org/2000/svg" width="512" height="512">
<path d="M0 0 C0.98562471 -0.00623996 1.97124942 -0.01247993 2.98674154 -0.01890898 C6.26309801 -0.03476203 9.53870254 -0.02226462 12.81506348 -0.00964355 C15.17467175 -0.01506807 17.53427662 -0.02219257 19.89387512 -0.03088379 C26.28433133 -0.04908063 32.6745285 -0.04206444 39.06498909 -0.02936745 C43.06024008 -0.02331386 47.05545407 -0.02360304 51.05070496 -0.02732849 C51.71532489 -0.02794142 52.37994482 -0.02855436 53.06470475 -0.02918586 C54.41514911 -0.03046485 55.76559346 -0.0317617 57.11603779 -0.03307623 C69.75934052 -0.04446419 82.40252698 -0.03139642 95.04581064 -0.00987476 C105.87862108 0.00799464 116.71126003 0.00489003 127.54406738 -0.0135498 C140.14418371 -0.03498815 152.74419829 -0.04336572 165.34433031 -0.03110075 C166.68962127 -0.02982664 168.03491225 -0.02856916 169.38020325 -0.02732849 C170.04199682 -0.02671139 170.7037904 -0.02609429 171.38563833 -0.02545848 C176.03431415 -0.02201445 180.6829225 -0.02801042 185.33158875 -0.0372467 C191.59603283 -0.04882452 197.86015392 -0.04074366 204.12456322 -0.01766968 C206.41987256 -0.01239298 208.71520921 -0.01387848 211.01050758 -0.02272034 C214.15100471 -0.03370016 217.2904759 -0.01988199 220.4309082 0 C221.33267713 -0.00892289 222.23444606 -0.01784577 223.16354132 -0.02703905 C230.61800486 0.06409271 237.17130175 2.00775459 243.3013916 6.33215332 C243.89178223 6.94703613 244.48217285 7.56191895 245.0904541 8.19543457 C245.69631348 8.79742676 246.30217285 9.39941895 246.9263916 10.01965332 C251.88211152 16.91221574 253.30393742 23.33028106 253.19647217 31.70155334 C253.19988987 32.68929573 253.20330757 33.67703812 253.20682883 34.6947121 C253.21338455 37.98374692 253.19146933 41.27195424 253.16955566 44.56091309 C253.16842669 46.92674236 253.16906202 49.29257303 253.17132568 51.65840149 C253.1724718 58.06687843 253.14897862 64.47505497 253.12102985 70.88346219 C253.09661795 76.90640992 253.0945343 82.92939128 253.09042236 88.95237934 C253.0816819 100.87696009 253.05510039 112.80143099 253.01721191 124.72595215 C252.98045938 136.30504815 252.95216353 147.88411424 252.93518066 159.46325684 C252.93412977 160.17777126 252.93307888 160.89228569 252.93199614 161.62845207 C252.92677574 165.21319327 252.92172097 168.79793469 252.91674852 172.38267624 C252.87532543 202.09116848 252.80461247 231.79954629 252.7154541 261.50793457 C253.72307454 261.80494137 253.72307454 261.80494137 254.75105095 262.1079483 C255.64018747 262.37195183 256.529324 262.63595535 257.44540405 262.90795898 C258.32340101 263.16783852 259.20139797 263.42771805 260.1060009 263.69547272 C263.95266438 264.89314407 267.67448911 266.34996475 271.4107666 267.85168457 C272.22016693 268.17295822 273.02956726 268.49423187 273.86349487 268.82524109 C276.52403708 269.88227463 279.18222091 270.94510925 281.8404541 272.00793457 C283.73546589 272.7620253 285.63065209 273.51567784 287.52600098 274.2689209 C291.53027493 275.86069168 295.53374461 277.45446321 299.53674316 279.04943848 C306.70479439 281.90376016 313.87983108 284.74031736 321.05574036 287.57481384 C326.12946499 289.57913871 331.20210195 291.58610041 336.27185059 293.60046387 C344.7641199 296.97378159 353.25643399 300.34343588 361.78585815 303.62193298 C365.06760055 304.88480653 368.34444796 306.16007416 371.62072754 307.43704224 C373.12104312 308.01777655 374.62376817 308.59233081 376.12902832 309.16012573 C378.17861138 309.93358906 380.21888517 310.72796203 382.25842285 311.52746582 C383.39303955 311.96163818 384.52765625 312.39581055 385.69665527 312.84313965 C389.8975102 315.15981007 392.54553726 318.16810088 394.7154541 322.50793457 C395.21676225 327.53745242 395.26035355 332.06395104 393.4654541 336.82043457 C387.26853335 342.87651621 378.57446737 345.64848511 370.6529541 348.88293457 C370.00995361 349.14590332 369.36695313 349.40887207 368.70446777 349.67980957 C365.87503649 350.79909543 363.78883361 351.50793457 360.7154541 351.50793457 C360.74163818 352.69346924 360.76782227 353.87900391 360.7947998 355.10046387 C360.88544431 359.50782323 360.94275498 363.91510057 360.9901123 368.32312012 C361.01522409 370.22918564 361.04932055 372.13515516 361.09265137 374.04089355 C361.15345155 376.78405455 361.18169655 379.52594043 361.20373535 382.26965332 C361.24244499 383.54337044 361.24244499 383.54337044 361.28193665 384.84281921 C361.28399279 389.200893 361.12389648 390.96952343 358.40759277 394.5501709 C355.7154541 396.50793457 355.7154541 396.50793457 352.1529541 397.07043457 C348.23443699 396.42922268 347.08987184 395.61294238 344.7154541 392.50793457 C343.2390305 389.55508737 343.49272472 386.82344474 343.39904785 383.53137207 C343.37826675 382.84612457 343.35748566 382.16087708 343.33607483 381.4548645 C343.27065226 379.26432388 343.21172856 377.07366268 343.1529541 374.88293457 C343.10976192 373.39854707 343.0661474 371.91417179 343.02209473 370.42980957 C342.91418272 366.78930639 342.8150563 363.14871262 342.7154541 359.50793457 C334.3004541 362.97293457 334.3004541 362.97293457 325.7154541 366.50793457 C325.70143555 368.89096802 325.70143555 368.89096802 325.68713379 371.32214355 C325.64711797 377.24332219 325.58132574 383.16398762 325.50793457 389.08483887 C325.4797923 391.64238875 325.45854442 394.20002451 325.44445801 396.75769043 C325.42293597 400.44441484 325.37623475 404.13011391 325.3248291 407.81652832 C325.32360046 408.95126083 325.32237183 410.08599335 325.32110596 411.25511169 C325.187215 418.59138557 324.3352307 425.30857967 319.38145447 431.05552673 C315.9023145 434.20407837 311.89622558 435.97395377 307.5279541 437.50793457 C306.83435791 437.75720703 306.14076172 438.00647949 305.42614746 438.26330566 C257.49986192 455.0329747 204.26965528 454.65666606 156.1529541 438.94543457 C155.29016846 438.66474121 154.42738281 438.38404785 153.53845215 438.09484863 C145.84202364 435.45554765 139.525244 432.12751436 135.7154541 424.50793457 C75.9854541 424.17793457 16.2554541 423.84793457 -45.2845459 423.50793457 C-45.2845459 426.14793457 -45.2845459 428.78793457 -45.2845459 431.50793457 C-46.3951416 434.08996582 -46.3951416 434.08996582 -47.96032715 436.32043457 C-48.53597412 437.16090332 -49.11162109 438.00137207 -49.70471191 438.86730957 C-50.64141724 440.17441895 -50.64141724 440.17441895 -51.5970459 441.50793457 C-52.22989502 442.42059082 -52.86274414 443.33324707 -53.51477051 444.27355957 C-54.80639987 446.13410352 -56.10529788 447.98962294 -57.41149902 449.83996582 C-59.13409695 452.29363502 -60.81938693 454.76713798 -62.4876709 457.25793457 C-63.44066143 458.6746917 -64.39377831 460.09136385 -65.3470459 461.50793457 C-65.77477295 462.14730957 -66.2025 462.78668457 -66.64318848 463.44543457 C-72.60650436 472.1689138 -72.60650436 472.1689138 -77.2845459 474.50793457 C-82.24780996 474.92153991 -85.38225238 475.11874106 -89.60681152 472.10681152 C-93.54211531 468.35647618 -96.2550795 463.50129757 -99.1595459 458.94543457 C-100.50873426 456.85926181 -101.86029016 454.77461826 -103.2142334 452.69152832 C-103.87906738 451.66785156 -104.54390137 450.6441748 -105.22888184 449.58947754 C-107.91431671 445.56387671 -110.74879335 441.66075422 -113.62487793 437.76989746 C-117.53377426 432.44245932 -117.53377426 432.44245932 -117.54460812 428.2724123 C-117.55167371 427.40400725 -117.5587393 426.53560219 -117.566019 425.64088184 C-117.56360391 424.68623119 -117.56118883 423.73158055 -117.55870056 422.7480011 C-117.56393724 421.73427781 -117.56917392 420.72055453 -117.57456928 419.67611235 C-117.58962833 416.26299874 -117.59027574 412.85003426 -117.59094238 409.43688965 C-117.59856 406.99625392 -117.60698681 404.5556206 -117.61616516 402.11499023 C-117.63815886 395.47226965 -117.64693743 388.82960941 -117.65199161 382.18686128 C-117.65524785 378.03839978 -117.66176998 373.88994757 -117.668993 369.74149132 C-117.6885623 358.25410797 -117.70496399 346.76673325 -117.70786953 335.27933216 C-117.7080571 334.54401482 -117.70824467 333.80869748 -117.70843792 333.05109779 C-117.70880417 331.56043414 -117.70916787 330.06977049 -117.70952903 328.57910684 C-117.70971185 327.83914294 -117.70989466 327.09917904 -117.71008301 326.33679199 C-117.71026356 325.5959239 -117.71044411 324.85505581 -117.71063013 324.09173717 C-117.7141703 312.09214542 -117.74118131 300.0927333 -117.7785809 288.09320382 C-117.81667723 275.77140537 -117.83602711 263.44969601 -117.83632904 251.12783736 C-117.8369134 244.21042315 -117.84539067 237.29322308 -117.87432671 230.37586403 C-117.90142544 223.86777142 -117.90273407 217.36002872 -117.88667107 210.85187531 C-117.88485334 208.46380121 -117.89157627 206.07570296 -117.90748978 203.6876812 C-117.92790172 200.42554631 -117.91742555 197.16490199 -117.89927673 193.90278625 C-117.9124767 192.95928922 -117.92567667 192.01579219 -117.93927664 191.04370433 C-117.8447258 183.59496613 -115.38674541 178.9786459 -110.47595215 173.48449707 C-109.66964355 172.81547363 -109.66964355 172.81547363 -108.8470459 172.13293457 C-108.04460449 171.44070801 -108.04460449 171.44070801 -107.22595215 170.73449707 C-100.86877843 166.71809356 -94.15238338 167.27203129 -86.9095459 167.38293457 C-85.23312012 167.39646973 -85.23312012 167.39646973 -83.52282715 167.41027832 C-80.77651128 167.43375111 -78.03064118 167.46658729 -75.2845459 167.50793457 C-75.29120773 166.27733307 -75.29786957 165.04673157 -75.30473328 163.77883911 C-75.36566653 152.15622761 -75.41057716 140.53364872 -75.43998241 128.91091347 C-75.45560837 122.93618718 -75.47679063 116.9615903 -75.51086426 110.98693848 C-75.54356705 105.21624868 -75.56142199 99.44568303 -75.56917763 93.67490768 C-75.57470154 91.4781944 -75.58548825 89.28148756 -75.60173607 87.08482742 C-75.62365533 83.99736331 -75.62650676 80.91040593 -75.62512207 77.82287598 C-75.6359079 76.92375488 -75.64669373 76.02463379 -75.6578064 75.0982666 C-75.61674951 66.58460138 -74.0972054 58.53879662 -68.1595459 52.13293457 C-67.45571777 51.3414502 -66.75188965 50.54996582 -66.0267334 49.73449707 C-58.73347791 43.81262296 -51.90843035 42.94179162 -42.7220459 43.25793457 C-41.71335449 43.27598145 -40.70466309 43.29402832 -39.66540527 43.31262207 C-37.20408985 43.35928208 -34.74485019 43.42471887 -32.2845459 43.50793457 C-32.3159668 42.6322583 -32.3159668 42.6322583 -32.34802246 41.7388916 C-33.10257712 17.5501617 -33.10257712 17.5501617 -24.6595459 8.13293457 C-18.07706089 1.37798271 -9.01782663 -0.08923023 0 0 Z M-13.2845459 21.50793457 C-15.04613059 24.3807806 -15.52770679 26.48667229 -15.4798584 29.83605957 C-15.47341309 30.63527832 -15.46696777 31.43449707 -15.46032715 32.25793457 C-15.44356934 33.08293457 -15.42681152 33.90793457 -15.4095459 34.75793457 C-15.40052246 35.59840332 -15.39149902 36.43887207 -15.38220215 37.30480957 C-15.35870407 39.37264062 -15.32283497 41.44032452 -15.2845459 43.50793457 C-14.23724871 43.50847934 -13.18995152 43.50902411 -12.11091805 43.50958538 C13.3872694 43.52398902 38.8852863 43.56703983 64.38337517 43.64002514 C76.7141403 43.67465922 89.04479382 43.70002861 101.37561035 43.70349121 C112.1247699 43.70653328 122.87373059 43.72705671 133.62281334 43.76845914 C139.31295279 43.78976847 145.00280967 43.80240022 150.69298935 43.79408836 C156.05291225 43.78653538 161.41226321 43.80242237 166.77208138 43.83599472 C168.73518374 43.84421285 170.69834314 43.84399587 172.6614399 43.83453178 C193.49415124 43.74407107 193.49415124 43.74407107 201.59576225 51.2499876 C208.40070522 58.38598115 209.86083019 66.79388303 209.87367249 76.36030579 C209.87861046 77.14453641 209.88354844 77.92876704 209.88863605 78.73676223 C209.90397641 81.36076095 209.91236228 83.98473526 209.92077637 86.60876465 C209.93035761 88.4912538 209.94036784 90.37374082 209.95077515 92.25622559 C209.97780355 97.365257 209.99882432 102.47429762 210.01877713 107.58336091 C210.04064939 112.92320067 210.06803202 118.26301209 210.09483337 123.60282898 C210.14474347 133.71390562 210.18968856 143.824998 210.23285574 153.93610543 C210.28224248 165.44750839 210.33715529 176.95888291 210.39253533 188.47025836 C210.50632954 212.14945722 210.61317418 235.82868337 210.7154541 259.50793457 C212.03996582 258.96652832 212.03996582 258.96652832 213.39123535 258.41418457 C221.08824575 255.43789698 227.33617715 253.73840914 235.7154541 254.50793457 C235.80668646 225.29243713 235.87748347 196.07694978 235.91971542 166.86133905 C235.9247183 163.41288954 235.92989558 159.9644403 235.93518066 156.51599121 C235.93675453 155.48619644 235.93675453 155.48619644 235.93836018 154.43559774 C235.95576978 143.31650617 235.98731049 132.19749724 236.02406529 121.07845471 C236.06145936 109.67095403 236.08338724 98.26352045 236.09180808 86.85595673 C236.09702992 80.44777102 236.10933146 74.03977282 236.13837433 67.63164711 C236.16547673 61.60296305 236.17390947 55.57454417 236.16788483 49.54580498 C236.16898737 47.33062424 236.17697179 45.11543485 236.192276 42.9003067 C236.21212251 39.88017529 236.20741239 36.86105039 236.19647217 33.84089661 C236.21394922 32.52036576 236.21394922 32.52036576 236.23177934 31.17315751 C236.19262197 27.18506331 236.03065745 25.03177498 233.93539047 21.54962444 C230.65086993 18.52882961 228.03754413 17.25954193 223.56994057 17.25066566 C222.74707861 17.24421677 221.92421664 17.23776788 221.07641947 17.23112357 C220.17779071 17.23422077 219.27916194 17.23731797 218.353302 17.24050903 C216.91507334 17.23371236 216.91507334 17.23371236 215.44778955 17.22677839 C212.22657832 17.21409178 209.00553525 17.21575751 205.78430176 17.21740723 C203.47820314 17.21142466 201.17210653 17.20461975 198.86601257 17.197052 C192.59537472 17.17935764 186.32479143 17.17469519 180.05413103 17.17342043 C174.82287402 17.17152318 169.59162977 17.1641677 164.36037767 17.15707624 C152.72555496 17.14171292 141.09075889 17.13573949 129.45592685 17.13708694 C128.40876784 17.13720681 128.40876784 17.13720681 127.3404541 17.1373291 C126.2920162 17.13745174 126.2920162 17.13745174 125.22239773 17.13757686 C113.89406067 17.13838981 102.56585656 17.11924991 91.23755796 17.09105237 C79.60504312 17.06232611 67.97259923 17.04887823 56.34004819 17.05023992 C49.80951005 17.0507504 43.27912235 17.04501952 36.74861526 17.02388382 C30.60740398 17.00455123 24.46648742 17.00434303 18.32526588 17.01891708 C16.07019814 17.02101243 13.8151122 17.01626135 11.56007576 17.00419617 C8.48355964 16.9888008 5.40806697 16.99801458 2.33157349 17.01345825 C1.43740616 17.00317113 0.54323884 16.992884 -0.37802446 16.98228514 C-5.8041361 17.04255385 -9.04924478 17.78425616 -13.2845459 21.50793457 Z M-56.2845459 64.50793457 C-59.0261332 69.0456215 -58.59431226 74.13919479 -58.60681152 79.28356934 C-58.61674133 80.26298492 -58.62667114 81.24240051 -58.63690186 82.25149536 C-58.66606082 85.48413925 -58.67973121 88.71658717 -58.6907959 91.94934082 C-58.70230143 94.19705714 -58.71381687 96.44477341 -58.7253418 98.69248962 C-58.74633472 103.40075595 -58.75803916 108.10895421 -58.76501465 112.81726074 C-58.77600891 118.85595844 -58.82412603 124.89375981 -58.88095856 130.93217564 C-58.91815755 135.57238932 -58.92861934 140.21238529 -58.9316864 144.85273552 C-58.93774784 147.07955795 -58.95383337 149.30637617 -58.98005676 151.53305244 C-59.01408615 154.64330158 -59.01044454 157.75133575 -58.99743652 160.86169434 C-59.01586609 161.7838826 -59.03429565 162.70607086 -59.05328369 163.65620422 C-59.02135626 166.08725042 -58.94230383 168.167005 -58.2845459 170.50793457 C-55.50595432 173.04719528 -55.50595432 173.04719528 -52.2845459 174.50793457 C-46.72934503 180.52606884 -45.98814087 185.66611449 -46.006073 193.53718567 C-45.9973844 194.90341679 -45.9973844 194.90341679 -45.98852026 196.29724854 C-45.971513 199.34969081 -45.96864311 202.40198195 -45.96569824 205.45446777 C-45.95640058 207.64237336 -45.94623215 209.8302754 -45.93525696 212.01817322 C-45.90792473 217.95982886 -45.89279795 223.90146075 -45.87982893 229.84316278 C-45.86421253 236.05185694 -45.83741755 242.26050249 -45.8117981 248.46916199 C-45.76764608 259.55844648 -45.73197946 270.64773659 -45.70078571 281.73706456 C-45.67238127 291.80271507 -45.63936832 301.86833898 -45.60192871 311.93395996 C-45.5994472 312.60250565 -45.59696569 313.27105133 -45.59440899 313.95985597 C-45.57278655 319.77540064 -45.55084747 325.5909441 -45.52887726 331.40648746 C-45.43471401 356.44027307 -45.36134308 381.47407572 -45.2845459 406.50793457 C14.1154541 406.50793457 73.5154541 406.50793457 134.7154541 406.50793457 C134.7154541 393.30793457 134.7154541 380.10793457 134.7154541 366.50793457 C129.73437266 364.01739385 125.16933653 361.8008263 120.03186035 359.84387207 C119.42227982 359.61024963 118.81269928 359.3766272 118.18464661 359.13592529 C116.88650756 358.63863586 115.58774224 358.14297851 114.28839111 357.64886475 C112.24316842 356.86968203 110.20087566 356.08324581 108.15930176 355.29455566 C102.74852505 353.20492386 97.33786794 351.11545921 91.90930176 349.0723877 C88.4639244 347.77379204 85.02684814 346.45507915 81.5904541 345.13293457 C80.56121826 344.75314453 79.53198242 344.37335449 78.47155762 343.98205566 C72.64690816 341.71874643 69.08575411 339.85706217 65.7154541 334.50793457 C64.13358825 330.01330611 64.50553246 326.2193357 65.8404541 321.69543457 C69.46501859 315.53367493 74.70390561 313.43840476 81.0982666 310.99621582 C81.92841278 310.67088867 82.75855896 310.34556152 83.61386108 310.01037598 C86.35297689 308.93896721 89.09667951 307.87984892 91.8404541 306.82043457 C93.77181023 306.06706041 95.70279411 305.31273135 97.63342285 304.55749512 C101.65182963 302.98644331 105.67181403 301.41953242 109.69299316 299.85559082 C118.17449928 296.55364864 126.6375854 293.20529328 135.10015869 289.85519409 C137.57567294 288.87573994 140.05192478 287.89817857 142.52844238 286.92126465 C154.00654915 282.39013721 165.46579975 277.81235927 176.92248535 273.22741699 C178.55712295 272.57337735 180.19176646 271.91935248 181.82641602 271.26534271 C185.78949681 269.67971013 189.75249783 268.09387834 193.7154541 266.50793457 C193.78553179 241.07362387 193.83843624 215.63932764 193.87089062 190.20493984 C193.8863602 178.39534211 193.90745154 166.58580435 193.94177246 154.77624512 C193.97167193 144.48316742 193.99102844 134.19013316 193.99771959 123.89701325 C194.00163089 118.44676941 194.01082507 112.99664986 194.03264427 107.54644585 C194.05301797 102.41570806 194.05928607 97.28514566 194.05477715 92.15437126 C194.05560195 90.27222236 194.06156229 88.39006754 194.07307053 86.50795364 C194.08802848 83.93529922 194.08439574 81.36330431 194.07621765 78.79063416 C194.08495618 78.04839818 194.0936947 77.3061622 194.10269803 76.54143423 C194.05222193 70.65411213 192.94067419 66.17747029 189.1206274 61.59466457 C185.24762508 59.84472505 181.4330956 60.09254307 177.23268127 60.12025452 C176.26090594 60.11486898 175.28913061 60.10948344 174.28790754 60.10393471 C171.02282455 60.08959625 167.75814362 60.09677345 164.49304199 60.10388184 C162.15576348 60.09818136 159.81848774 60.09121836 157.48121643 60.08308411 C151.1259084 60.0651021 144.77073805 60.06633057 138.41541219 60.07202649 C132.44435924 60.07550095 126.47332757 60.06756233 120.50227921 60.06066584 C107.95408007 60.04693514 95.40594325 60.05238245 82.85774552 60.06385105 C71.37676466 60.0737838 59.89594495 60.06084314 48.41498894 60.03691686 C36.62766202 60.01253709 24.8404102 60.00291523 13.05305856 60.00956959 C6.4348128 60.01294592 -0.1832998 60.01047914 -6.80152702 59.99331856 C-13.02400411 59.97788913 -19.24617274 59.98176069 -25.46863747 60.0006237 C-27.75475886 60.00432065 -30.0409029 60.00116915 -32.32700348 59.99073792 C-35.44329126 59.97760228 -38.55854669 59.98901013 -41.67478943 60.00672913 C-42.58354244 59.99712412 -43.49229545 59.98751911 -44.42858642 59.97762305 C-49.64915178 60.03887099 -52.52628394 60.51774053 -56.2845459 64.50793457 Z M-100.2845459 187.50793457 C-102.39536459 193.84039065 -101.2845459 200.83293977 -101.2845459 207.50793457 C-88.4145459 207.50793457 -75.5445459 207.50793457 -62.2845459 207.50793457 C-62.2845459 201.23793457 -62.2845459 194.96793457 -62.2845459 188.50793457 C-65.72878639 184.28120688 -65.72878639 184.28120688 -69.42907715 184.00622559 C-71.24472168 184.00900513 -71.24472168 184.00900513 -73.0970459 184.01184082 C-74.07314819 184.00965797 -74.07314819 184.00965797 -75.06896973 184.00743103 C-76.44067882 184.00908624 -77.81240721 184.02060561 -79.18395996 184.04138184 C-81.27819051 184.07034667 -83.36988848 184.06198452 -85.4642334 184.0489502 C-86.80018314 184.05518818 -88.13612493 184.0635796 -89.4720459 184.07434082 C-90.68247559 184.08408936 -91.89290527 184.09383789 -93.14001465 184.10388184 C-96.52080189 184.538292 -97.91306168 185.10213741 -100.2845459 187.50793457 Z M-100.2845459 223.50793457 C-100.2845459 288.18793457 -100.2845459 352.86793457 -100.2845459 419.50793457 C-96.9845459 419.50793457 -93.6845459 419.50793457 -90.2845459 419.50793457 C-90.2845459 354.82793457 -90.2845459 290.14793457 -90.2845459 223.50793457 C-93.5845459 223.50793457 -96.8845459 223.50793457 -100.2845459 223.50793457 Z M-73.2845459 223.50793457 C-73.2845459 288.18793457 -73.2845459 352.86793457 -73.2845459 419.50793457 C-69.6545459 419.50793457 -66.0245459 419.50793457 -62.2845459 419.50793457 C-62.2845459 354.82793457 -62.2845459 290.14793457 -62.2845459 223.50793457 C-65.9145459 223.50793457 -69.5445459 223.50793457 -73.2845459 223.50793457 Z M221.45373535 272.90246582 C220.81249725 273.1612149 220.17125916 273.41996399 219.5105896 273.68655396 C218.09900768 274.25670628 216.68836497 274.82918788 215.27853394 275.40365601 C211.33738558 277.00909131 207.38901673 278.5966416 203.4420166 280.18762207 C202.58998154 280.53165573 201.73794647 280.87568939 200.86009216 281.23014832 C190.22804498 285.51981319 179.56485976 289.73067736 168.9029541 293.94543457 C166.84881432 294.75812325 164.7946965 295.57086743 162.74060059 296.38366699 C153.15556536 300.17563223 143.56826321 303.96177924 133.97717285 307.73840332 C130.6815156 309.03636642 127.38593212 310.33451648 124.0904541 311.63293457 C123.31154816 311.93981201 122.53264221 312.24668945 121.73013306 312.56286621 C109.34965264 317.44312841 97.0086691 322.41108475 84.7154541 327.50793457 C87.60182885 330.39430932 91.1839067 331.39815038 94.9342041 332.83215332 C96.22415283 333.33307495 96.22415283 333.33307495 97.54016113 333.84411621 C99.42870176 334.57700766 101.3181522 335.30755782 103.20837402 336.03610229 C108.42344371 338.04669012 113.63148631 340.07535266 118.8404541 342.10168457 C120.50835999 342.74976326 120.50835999 342.74976326 122.20996094 343.41093445 C133.70485494 347.88199176 145.17092773 352.42506365 156.63297272 356.97953701 C160.96760542 358.70147936 165.30487344 360.41662732 169.64318848 362.12927246 C179.69499301 366.1014415 189.74296924 370.07338877 199.71362305 374.24598694 C203.23745378 375.72016813 206.76921214 377.17475743 210.30163574 378.62820435 C212.63628322 379.5999804 214.95555617 380.60317492 217.27600098 381.60827637 C225.19146978 385.11984744 225.19146978 385.11984744 233.6138916 384.81262207 C235.33127178 384.08286015 237.02978369 383.30822353 238.7154541 382.50793457 C239.95809322 382.01027134 241.20492931 381.52302056 242.45471191 381.0435791 C246.25972359 379.58043928 250.04042032 378.06314179 253.8180542 376.53085327 C258.24887138 374.73400665 262.68584887 372.95245467 267.1217041 371.16809082 C268.05862091 370.79072281 268.99553772 370.4133548 269.96084595 370.02455139 C280.90300997 365.62015869 291.87121874 361.28186094 302.8404541 356.94543457 C304.86682743 356.14393641 306.89319463 355.34242278 308.91955566 354.54089355 C323.53233279 348.7619604 338.1481161 342.99060921 352.76672363 337.22644043 C360.09019239 334.33824019 367.41090974 331.44376956 374.7154541 328.50793457 C372.64088642 326.43336689 371.37252158 325.8291512 368.68518066 324.77478027 C367.84545715 324.44234818 367.00573364 324.10991608 366.14056396 323.76741028 C365.22168396 323.40979111 364.30280396 323.05217194 363.3560791 322.68371582 C361.91805939 322.11689339 361.91805939 322.11689339 360.45098877 321.53862 C357.29103371 320.29435799 354.12825769 319.05743588 350.9654541 317.82043457 C348.76082597 316.95375833 346.55640063 316.08656603 344.35217285 315.21887207 C339.8968061 313.46579061 335.44040245 311.71538831 330.98303223 309.96740723 C323.29830382 306.95322651 315.62046195 303.92172257 307.94342041 300.88803101 C305.70770598 300.00487389 303.47164832 299.12259161 301.23547363 298.24060059 C292.14510113 294.65490294 283.05814275 291.06066115 273.9732666 287.46105957 C272.88318298 287.02922363 271.79309937 286.5973877 270.66998291 286.15246582 C265.29675796 284.023818 259.92382763 281.89443211 254.5513916 279.76379395 C252.58786199 278.98576874 250.62432087 278.20777256 248.6607666 277.42980957 C247.77285431 277.07735168 246.88494202 276.7248938 245.97012329 276.36175537 C243.55402527 275.40496467 241.13525778 274.45530721 238.7154541 273.50793457 C237.96020447 273.20778442 237.20495483 272.90763428 236.42681885 272.59838867 C230.23560911 270.18714401 227.53743912 270.42883435 221.45373535 272.90246582 Z M151.7154541 373.50793457 C151.64136963 379.71925231 151.58688296 385.93031362 151.55065918 392.14196777 C151.5355605 394.25562011 151.51507985 396.36924105 151.48913574 398.48278809 C151.45280013 401.51859272 151.43573866 404.55398363 151.42248535 407.58996582 C151.4070015 408.53692825 151.39151764 409.48389069 151.37556458 410.45954895 C151.37533798 411.34023544 151.37511139 412.22092194 151.37487793 413.1282959 C151.36821609 413.90328934 151.36155426 414.67828278 151.35469055 415.47676086 C151.81168875 418.04975565 152.69749382 418.9000185 154.7154541 420.50793457 C156.86126122 421.48516924 156.86126122 421.48516924 159.3013916 422.19152832 C160.22145996 422.4774585 161.14152832 422.76338867 162.08947754 423.0579834 C163.0797998 423.35084229 164.07012207 423.64370117 165.0904541 423.94543457 C166.11687012 424.25182861 167.14328613 424.55822266 168.20080566 424.87390137 C209.34839466 436.82313593 250.52688374 435.63506399 291.7154541 424.50793457 C292.47503418 424.30490723 293.23461426 424.10187988 294.01721191 423.8927002 C301.70092201 422.14847413 301.70092201 422.14847413 307.7154541 417.50793457 C308.14762412 415.43518177 308.14762412 415.43518177 308.05603027 413.1282959 C308.05569038 411.80726616 308.05569038 411.80726616 308.05534363 410.45954895 C308.03985977 409.51258652 308.02437592 408.56562408 308.00842285 407.58996582 C308.00417801 406.61758469 307.99993317 405.64520355 307.99555969 404.64335632 C307.97875725 401.53543491 307.9411019 398.42816023 307.9029541 395.32043457 C307.8879093 393.21432414 307.87422054 391.10820355 307.86193848 389.0020752 C307.82884854 383.83711219 307.77705519 378.67263306 307.7154541 373.50793457 C301.4599284 375.30209219 295.37570587 377.29852974 289.3404541 379.73059082 C288.58092941 380.03262421 287.82140472 380.33465759 287.03886414 380.64584351 C285.42625957 381.28744419 283.81434688 381.93078628 282.20309448 382.57577515 C279.67978784 383.58469539 277.15377365 384.58652768 274.62683105 385.58630371 C267.61580796 388.36113184 260.60772979 391.1424017 253.61752319 393.96931458 C250.71695233 395.13877519 247.80924091 396.2902672 244.9029541 397.44543457 C243.88652832 397.86381592 242.87010254 398.28219727 241.82287598 398.71325684 C240.87348145 399.08764893 239.92408691 399.46204102 238.94592285 399.84777832 C237.74552368 400.3329895 237.74552368 400.3329895 236.52087402 400.82800293 C227.73984505 402.95620463 221.03092357 400.53691611 212.87561035 397.16027832 C211.75464462 396.71076309 210.63367889 396.26124786 209.47874451 395.79811096 C205.90577477 394.36168019 202.34186466 392.90417728 198.7779541 391.44543457 C196.41851231 390.49151425 194.0584906 389.53902698 191.69787598 388.5880127 C187.13544073 386.74846691 182.57524867 384.90353388 178.01672363 383.05432129 C172.40530761 380.78228663 166.78544832 378.53368435 161.14904785 376.32434082 C160.4113063 376.03252426 159.67356476 375.7407077 158.91346741 375.44004822 C155.41852144 373.99818308 155.41852144 373.99818308 151.7154541 373.50793457 Z M-92.2845459 436.50793457 C-90.54684956 440.85217542 -88.91145711 443.6364244 -86.1595459 447.32043457 C-85.43509277 448.29625488 -84.71063965 449.2720752 -83.9642334 450.27746582 C-83.40993652 451.01352051 -82.85563965 451.7495752 -82.2845459 452.50793457 C-78.08961163 451.10962315 -76.81497983 448.10190726 -74.5970459 444.50793457 C-73.97346191 443.52566895 -73.97346191 443.52566895 -73.33728027 442.52355957 C-71.22401418 439.71404719 -71.22401418 439.71404719 -70.2845459 436.50793457 C-77.5445459 436.50793457 -84.8045459 436.50793457 -92.2845459 436.50793457 Z " fill="#000000" transform="translate(117.2845458984375,18.4920654296875)"/>
<path d="M0 0 C0.68663223 -0.00311998 1.37326447 -0.00623996 2.08070374 -0.00945449 C4.38071282 -0.01742965 6.68045772 -0.01111282 8.98046875 -0.00482178 C10.62972162 -0.00753186 12.27897329 -0.01109288 13.92822266 -0.01544189 C18.4074805 -0.02456616 22.88664629 -0.02102148 27.36590576 -0.01468372 C32.05123138 -0.00962394 36.73654907 -0.01431512 41.421875 -0.01745605 C49.29037899 -0.02109576 57.15884545 -0.01629648 65.02734375 -0.0067749 C74.12733467 0.00410965 83.22723598 0.00058408 92.32722473 -0.01042771 C100.13707751 -0.01950046 107.9469033 -0.02078593 115.75675964 -0.01555037 C120.42265288 -0.01243061 125.08850399 -0.01202153 129.75439453 -0.01862335 C134.14072876 -0.02439599 138.52694732 -0.02040141 142.91326904 -0.00883484 C144.52414762 -0.00618782 146.13503592 -0.00695407 147.74591064 -0.01136017 C149.94271818 -0.01681543 152.13915374 -0.00998194 154.3359375 0 C155.56594482 0.00075405 156.79595215 0.0015081 158.06323242 0.002285 C161.04273287 0.24381517 162.69763696 0.62761352 165.16796875 2.25396729 C167.23263377 4.90853659 167.16481812 6.34218488 167.04296875 9.75396729 C166.05780758 13.69461197 165.35367412 14.82321961 162.16796875 17.25396729 C159.03479099 17.76012516 159.03479099 17.76012516 155.26673889 17.76863098 C154.22559823 17.77904927 154.22559823 17.77904927 153.16342443 17.78967804 C150.8378707 17.807973 148.51333426 17.7976776 146.18774414 17.78741455 C144.5204034 17.79447183 142.85306906 17.80321604 141.18574524 17.81352234 C136.65676047 17.83604818 132.12812463 17.83306913 127.59910512 17.82420087 C123.81916724 17.8190951 120.03929517 17.82638022 116.25936407 17.83367294 C107.34252874 17.85068224 98.42586451 17.84709591 89.5090332 17.8303833 C80.30780676 17.81346073 71.10705467 17.82929598 61.90588003 17.86160618 C54.00766171 17.88829101 46.10959114 17.89558109 38.21133226 17.8870911 C33.49333606 17.88215865 28.77562532 17.88439459 24.05766487 17.90487862 C19.621063 17.92321841 15.18514407 17.91729824 10.74857903 17.89267921 C9.12038388 17.88766585 7.49213685 17.89117478 5.86398315 17.90382767 C3.6405959 17.91973927 1.41946287 17.90482974 -0.80381775 17.88215637 C-2.66956908 17.88127691 -2.66956908 17.88127691 -4.57301235 17.88037968 C-8.74104909 17.07924598 -10.23835054 15.54829246 -12.83203125 12.25396729 C-13.38551763 8.37956261 -13.13171688 5.47352717 -10.83203125 2.25396729 C-7.29937287 -0.08563373 -4.16477132 0.0025532 0 0 Z " fill="#000000" transform="translate(107.83203125,242.74603271484375)"/>
<path d="M0 0 C0.69565376 -0.00638882 1.39130752 -0.01277764 2.1080417 -0.01936007 C4.43308629 -0.03458972 6.75642111 -0.01416495 9.08140564 0.00622559 C10.75051436 0.00272377 12.41961975 -0.00293549 14.0887146 -0.0105896 C18.61769 -0.02483762 23.14605828 -0.00777675 27.67497563 0.01569557 C32.41367574 0.03579912 37.15235051 0.02992533 41.89108276 0.02758789 C49.84785479 0.02764146 57.80438935 0.04739969 65.76109314 0.07946777 C74.9628352 0.11637325 84.16426631 0.1251416 93.36607271 0.11817026 C102.21610089 0.11186765 111.06602233 0.12261425 119.91602898 0.14213562 C123.68349667 0.15031466 127.45090986 0.15301825 131.2183857 0.15144348 C135.65324094 0.15056528 140.08780013 0.1647632 144.52257729 0.19067001 C146.1511822 0.19783887 147.77981859 0.19991198 149.40843582 0.19655228 C151.62946513 0.19284407 153.84962728 0.20756075 156.07055664 0.22705078 C157.93574243 0.23264385 157.93574243 0.23264385 159.83860874 0.23834991 C163.20232752 0.64964942 164.58363353 1.26804466 166.9717865 3.62145996 C168.0359966 6.27089969 168.21513628 8.78422275 167.9717865 11.62145996 C165.89781081 15.10277629 164.82719804 16.33632278 160.9717865 17.62145996 C158.75116064 17.72204277 156.5275918 17.7608589 154.30470276 17.76863098 C153.62371407 17.77230767 152.94272538 17.77598436 152.24110067 17.77977246 C149.95421881 17.79080488 147.66738239 17.79465234 145.38047791 17.79846191 C143.74284725 17.80472678 142.10521801 17.8113736 140.46759033 17.81837463 C136.01509987 17.83577924 131.56262013 17.84633442 127.11010408 17.85458016 C124.32921824 17.85973034 121.54833573 17.86580599 118.76745224 17.87209129 C110.069104 17.89113991 101.37076425 17.90537304 92.67239916 17.91370326 C82.6266899 17.92348245 72.58120057 17.94982106 62.53556883 17.99020416 C54.77328446 18.02033944 47.01106323 18.03516958 39.24872148 18.03848428 C34.61120178 18.04083725 29.97391715 18.04983006 25.33646011 18.07494545 C20.97468712 18.09818675 16.61330464 18.10247543 12.25148582 18.09218407 C10.65068833 18.09168767 9.04987186 18.09803867 7.44913292 18.11174011 C5.26323124 18.12940354 3.07873963 18.12238204 0.89283752 18.10920715 C-0.33017248 18.11159551 -1.55318249 18.11398386 -2.8132534 18.11644459 C-6.64509555 17.526483 -8.29121945 16.31294076 -11.0282135 13.62145996 C-12.47252205 10.73284287 -12.40509856 8.82498295 -12.0282135 5.62145996 C-8.33147263 0.90269583 -5.91660777 -0.00338923 0 0 Z " fill="#000000" transform="translate(107.02821350097656,182.3785400390625)"/>
<path d="M0 0 C0.67690514 -0.00297112 1.35381027 -0.00594224 2.05122769 -0.0090034 C4.32429487 -0.01768989 6.59730938 -0.0191986 8.87039185 -0.02069092 C10.49817009 -0.02531909 12.12594725 -0.03034374 13.75372314 -0.03573608 C18.1793595 -0.04886122 22.60498068 -0.05530513 27.03063345 -0.05974674 C29.79476851 -0.06267696 32.55889941 -0.06678164 35.32303238 -0.07125092 C43.96905749 -0.08492543 52.61507311 -0.09459261 61.26110828 -0.09845281 C71.2462173 -0.10293522 81.23118955 -0.12049179 91.21625698 -0.1494534 C98.93183355 -0.17105673 106.6473716 -0.18115635 114.3629781 -0.18249393 C118.97250634 -0.18354282 123.581906 -0.18946857 128.19140244 -0.20731354 C132.5268642 -0.22377118 136.86210041 -0.22596101 141.19758224 -0.21717453 C142.78869734 -0.21640295 144.37982445 -0.22076285 145.97090912 -0.23063278 C148.14347328 -0.24331938 150.31523454 -0.23749414 152.48779297 -0.22705078 C153.70342863 -0.22851734 154.91906429 -0.2299839 156.1715374 -0.2314949 C159.7076551 0.17959338 161.55108557 1.0019225 164.37088013 3.14044189 C166.44998202 6.25909474 166.65247387 6.67783711 166.24588013 10.14044189 C166.181427 10.82106689 166.11697388 11.50169189 166.05056763 12.20294189 C165.08402633 14.95814006 163.88294344 15.66448948 161.37088013 17.14044189 C158.23770237 17.52355194 158.23770237 17.52355194 154.46965027 17.53485107 C153.7755565 17.54094218 153.08146273 17.54703328 152.36633581 17.55330896 C150.04094265 17.5699558 147.71609605 17.56516096 145.39065552 17.56036377 C143.72331676 17.56770313 142.05598308 17.57628897 140.38865662 17.58602905 C135.85973167 17.60826734 131.33098854 17.6111746 126.8020165 17.60928154 C123.02208634 17.60916195 119.24219486 17.6177213 115.46227545 17.62605906 C106.54547231 17.64530127 97.62876279 17.64817389 88.71194458 17.64141846 C79.51073286 17.63477591 70.30992185 17.65764867 61.10879141 17.69473219 C53.21058528 17.7254104 45.31250817 17.73679129 37.41424364 17.73289537 C32.69623178 17.73082601 27.97853174 17.7363359 23.26057625 17.76078796 C18.82399776 17.78302178 14.38807165 17.78120566 9.9514904 17.76086044 C8.32328664 17.75744445 6.69503926 17.7625649 5.06689453 17.77684402 C2.84353089 17.79499784 0.62238963 17.78232041 -1.60090637 17.76190186 C-2.84474059 17.76261436 -4.08857481 17.76332687 -5.37010098 17.76406097 C-9.53856941 16.9664171 -11.02822665 15.42728855 -13.62911987 12.14044189 C-14.36719028 8.20406639 -13.99048695 6.70118391 -11.81661987 3.32794189 C-8.1804447 -0.30823328 -4.92515419 0.01205934 0 0 Z " fill="#000000" transform="translate(108.62911987304688,121.85955810546875)"/>
<path d="M0 0 C1.13526123 -0.00478363 2.27052246 -0.00956726 3.44018555 -0.01449585 C5.83741646 -0.01789422 8.23469375 -0.00869641 10.63183594 0.01220703 C14.29987994 0.03897042 17.96486361 0.01245382 21.6328125 -0.01953125 C23.96354842 -0.01622714 26.29428243 -0.0098209 28.625 0 C29.72094482 -0.01012115 30.81688965 -0.02024231 31.94604492 -0.03067017 C39.52778589 0.08595939 39.52778589 0.08595939 43.5078125 3.01806641 C45.73731935 6.28692399 46.04006373 7.78372259 45.3125 11.6640625 C43.51256226 14.36396912 42.228727 16.205949 39.3125 17.6640625 C37.73606325 17.77427606 36.15513445 17.8231581 34.57495117 17.84106445 C33.59020309 17.85389969 32.60545502 17.86673492 31.59086609 17.87995911 C30.52318497 17.88734604 29.45550385 17.89473297 28.35546875 17.90234375 C27.26035477 17.9104155 26.16524078 17.91848724 25.03694153 17.92680359 C22.7159687 17.94065154 20.39497545 17.9513705 18.07397461 17.95922852 C14.52483517 17.97644205 10.97662684 18.0203231 7.42773438 18.06445312 C5.17448603 18.07457975 2.92122975 18.08309594 0.66796875 18.08984375 C-0.92444389 18.11610588 -0.92444389 18.11610588 -2.54902649 18.14289856 C-9.93096461 18.12117631 -9.93096461 18.12117631 -13.8347168 15.76245117 C-16.04095432 13.26375417 -16.62078831 12.16440021 -17.0625 8.8515625 C-16.6875 5.6640625 -16.6875 5.6640625 -14.89453125 3.00634766 C-10.10693101 -0.49032079 -5.78931186 -0.05346485 0 0 Z " fill="#000000" transform="translate(111.6875,363.3359375)"/>
<path d="M0 0 C1.35677101 -0.00956978 1.35677101 -0.00956978 2.74095154 -0.01933289 C3.71081497 -0.02044571 4.68067841 -0.02155853 5.67993164 -0.02270508 C6.68343155 -0.02603348 7.68693146 -0.02936188 8.72084045 -0.03279114 C10.84155825 -0.03785001 12.96228399 -0.04019978 15.08300781 -0.04003906 C18.32443362 -0.04222577 21.56551915 -0.06039323 24.80688477 -0.0793457 C26.86873256 -0.0822798 28.93058197 -0.08426449 30.99243164 -0.08520508 C31.96027084 -0.09239059 32.92811005 -0.09957611 33.92527771 -0.10697937 C44.10564744 -0.07247194 44.10564744 -0.07247194 48.21508789 3.89526367 C49.81370001 6.92421296 49.88629925 8.75928419 49.40258789 12.14526367 C48.12915039 14.79516602 48.12915039 14.79516602 45.40258789 17.14526367 C41.39171015 17.92161144 37.41457283 17.84524849 33.34008789 17.80932617 C31.56492798 17.81650162 31.56492798 17.81650162 29.75390625 17.82382202 C27.2523465 17.82722379 24.75074247 17.81800225 22.24926758 17.79711914 C18.41655508 17.77036118 14.58677161 17.79686148 10.75415039 17.82885742 C8.32445641 17.82555338 5.89476426 17.81914726 3.46508789 17.80932617 C1.74310181 17.8245079 1.74310181 17.8245079 -0.01367188 17.83999634 C-7.9289933 17.72317742 -7.9289933 17.72317742 -11.32006836 14.79125977 C-12.89174571 11.53555658 -13.19294512 9.71846174 -12.59741211 6.14526367 C-9.72361959 1.52666855 -9.72361959 1.52666855 -6.74412537 0.5176239 C-4.45610677 0.12075342 -2.32218591 0.01115918 0 0 Z " fill="#000000" transform="translate(107.597412109375,302.854736328125)"/>
</svg>
