<svg width="270" height="140" viewBox="0 0 270 140" fill="none" xmlns="http://www.w3.org/2000/svg">
<path d="M141.901 64.2465C139.771 65.2605 139.406 65.3399 136.529 65.4075C131.282 65.5339 127.526 63.6645 124.792 59.5731C122.07 55.4963 121.659 50.5261 123.693 46.2436C127.035 39.207 134.974 36.3089 141.957 39.5773C152.377 44.4535 152.345 59.2792 141.901 64.2465ZM187.971 98.9856C183.774 100.2 178.098 99.8615 170.215 97.9275C163.531 96.2903 153.32 92.6779 145.661 89.242L143.774 88.3954L145.64 87.5107C147.142 86.8024 147.651 86.6848 148.262 86.9141C148.679 87.0698 150.969 87.9898 153.35 88.9627C161.289 92.2018 170.492 94.9617 177.09 96.0875C178.301 96.2932 180.814 96.4637 182.675 96.4666C185.511 96.4696 186.281 96.3696 187.457 95.8376L188.856 95.2057L188.265 94.2357C187.445 92.8896 187.507 91.3876 188.436 90.015L189.203 88.8892L188.618 87.6871C186.308 82.9284 177.499 74.0813 167.473 66.4451C165.892 65.2429 164.607 64.173 164.619 64.0672C164.731 62.9238 165.145 60.787 165.254 60.787C165.33 60.787 167.297 62.2566 169.622 64.0525C180.685 72.5881 188.403 80.4565 191.416 86.2704C192.139 87.6665 192.73 88.4425 193.147 88.5453C193.494 88.6335 194.191 89.1744 194.693 89.7475C195.44 90.597 195.608 91.0408 195.608 92.1724C195.605 93.9536 194.758 95.3644 193.336 95.9581C192.739 96.208 191.719 96.8664 191.069 97.4219C190.338 98.0509 189.165 98.6417 187.971 98.9856ZM108.365 66.6743C108.8 67.9617 109.058 69.0169 108.944 69.0169C108.629 69.0169 102.824 64.9431 98.4651 61.6629C93.824 58.1711 90.8642 55.7168 87.0402 52.1867C84.245 49.6061 84.0922 49.5091 82.7283 49.4914C80.2182 49.4532 78.4429 47.434 78.7515 44.9709C78.8985 43.8128 78.7839 43.513 77.4171 41.4849C76.5941 40.2651 75.5036 38.3899 74.9952 37.3141C74.1692 35.5711 74.0693 35.0773 74.0693 32.6965C74.0693 30.2893 74.1457 29.913 74.8658 28.8255C75.8505 27.3353 78.5252 25.9392 81.2705 25.4806C86.9021 24.543 98.0095 26.6916 109.567 30.9624C112.641 32.0969 113.646 32.4232 113.74 32.9228C113.785 33.158 113.629 33.4284 113.388 33.8428C113.347 33.9192 113.3 33.9957 113.253 34.0809C112.856 34.7863 112.406 35.333 112.259 35.2978C112.109 35.2625 109.67 34.4248 106.842 33.4372C91.5579 28.0966 79.9743 26.9885 77.5846 30.6332C76.4442 32.3791 77.6611 36.5616 80.3211 40.03C81.3351 41.3556 81.5203 41.4643 82.7695 41.5084C85.2943 41.5966 86.7081 43.1426 86.7081 45.8203V47.4869L89.2065 49.8089C93.5918 53.8797 98.5122 57.836 104.717 62.2831L107.577 64.3317L108.365 66.6743ZM91.7489 98.9944C86.7551 99.8409 81.5027 99.7998 78.8397 98.8915C74.3368 97.3572 72.7966 93.6038 74.6131 88.5953C76.6941 82.8608 85.3531 73.4552 96.5105 64.8138C97.7009 63.8909 98.7649 63.1384 98.8796 63.1384C98.9913 63.1384 99.6379 63.547 100.317 64.0437L101.545 64.949L98.6826 67.1799C83.9129 78.6871 75.3773 89.2919 77.2613 93.7978C78.0108 95.5937 79.5422 96.1639 83.9511 96.2962C87.9308 96.4167 90.0677 96.1727 95.3789 94.9882C101.34 93.6596 111.889 89.9562 120.883 86.0323L122.429 85.3563L124.04 86.2233C124.927 86.7024 125.65 87.1668 125.653 87.255C125.653 87.4372 124.627 87.8987 117.753 90.8086C108.218 94.8412 98.8296 97.7981 91.7489 98.9944ZM171.441 59.5378C169.733 60.8722 168.29 61.9598 168.231 61.9539C168.134 61.948 165.983 60.3579 165.733 60.111C165.674 60.0493 166.718 59.1616 168.052 58.1358C172.796 54.4852 177.587 50.2321 181.499 46.1965C187.204 40.3121 190.029 35.962 190.126 32.9081C190.22 29.9395 188.262 28.7168 183.116 28.5257L179.883 28.4052L179.398 29.287C178.284 31.3062 175.406 31.9235 173.543 30.542L172.59 29.8396L170.356 30.3598C169.131 30.6449 166.124 31.5238 163.681 32.3115C161.236 33.1021 159.12 33.7458 158.979 33.7429C158.596 33.74 157.341 31.4268 157.544 31.1005C157.741 30.7831 165.401 28.2729 169.222 27.2765C171.611 26.6505 171.823 26.5329 172.323 25.5453C172.687 24.8281 173.31 24.2608 174.26 23.7847C175.524 23.1527 175.776 23.1175 176.852 23.4408C177.508 23.6377 178.363 24.1168 178.754 24.5078C179.415 25.1691 179.727 25.2279 183.054 25.3307C187.31 25.4601 189.412 26.1155 191.381 27.932C192.968 29.3957 193.365 30.5891 193.189 33.3549C193.074 35.1479 192.839 35.9473 191.839 37.9431C188.818 43.9803 181.687 51.5254 171.441 59.5378ZM133.222 64.0143C133.827 64.1672 135.406 64.2465 136.725 64.1907C138.668 64.1084 139.515 63.9085 141.17 63.1472C144.932 61.4131 147.942 57.4539 148.215 53.8797C148.312 52.6217 148.186 52.1779 147.351 50.8023C146.281 49.0447 144.988 48.0189 143.245 47.5486C140.658 46.852 138.709 48.2922 136.396 52.61C134.835 55.5198 133.292 57.0806 131.502 57.5626C129.154 58.1946 126.285 57.0277 124.851 54.8585C123.96 53.5123 123.666 53.7681 124.198 55.4199C125.53 59.5349 129.154 62.9856 133.222 64.0143ZM186.825 127.796C185.479 128.172 176.373 128.169 177.302 127.796C177.66 127.652 178.028 127.229 178.119 126.859C178.21 126.488 178.248 123.737 178.201 120.748C178.122 115.428 178.104 115.304 177.458 115.019C177.093 114.861 176.796 114.661 176.796 114.578C176.796 114.496 178.945 114.464 181.573 114.508C187.093 114.599 188.28 114.905 189.838 116.63C191.704 118.696 192.045 121.903 190.684 124.589C189.823 126.288 188.6 127.302 186.825 127.796ZM179.736 115.163V127.508L182.16 127.502C186.402 127.488 187.898 126.853 189.068 124.563C189.935 122.864 189.988 119.76 189.174 118.164C187.998 115.863 186.452 115.163 182.537 115.163H179.736ZM3.99151 127.532C4.54703 128.087 4.52646 128.096 2.27792 128.096H0L1.00229 127.582C1.93109 127.105 2.22796 126.535 5.04377 119.866C6.71327 115.907 8.08296 112.5 8.08296 112.297C8.08296 111.245 8.70902 112.336 10.2727 116.119C14.8844 127.276 14.8726 127.255 15.8455 127.676C16.692 128.046 16.5774 128.072 14.1084 128.067C12.2332 128.061 11.6571 127.981 12.1244 127.793C12.9651 127.455 12.9562 127.232 12.0098 124.634L11.2309 122.494L5.09961 122.658L4.26192 124.813C3.43599 126.938 3.43305 126.973 3.99151 127.532ZM110.737 127.793C111.204 127.981 110.669 128.055 108.899 128.043C107.527 128.034 106.666 127.964 106.989 127.884C107.312 127.805 107.803 127.54 108.079 127.297C108.356 127.05 110.005 123.493 111.745 119.393C114.093 113.849 114.972 112.054 115.166 112.406C115.313 112.665 116.73 115.983 118.32 119.781C119.907 123.578 121.427 126.929 121.697 127.226C121.967 127.526 122.47 127.826 122.817 127.893C123.164 127.961 122.258 128.031 120.803 128.046C118.878 128.07 118.299 127.996 118.673 127.779C119.357 127.379 119.322 126.762 118.484 124.531L117.779 122.658L111.621 122.491L110.848 124.575C109.905 127.117 109.893 127.455 110.737 127.793ZM145.593 127.899C145.861 127.97 145.023 128.037 143.73 128.049C141.54 128.072 141.44 128.046 142.266 127.684C143.042 127.349 143.524 126.506 146.014 121.142C147.586 117.753 148.873 114.825 148.873 114.631C148.873 113.535 149.661 114.931 152.233 120.58C154.972 126.594 155.513 127.52 156.515 127.887C156.759 127.975 155.831 128.052 154.458 128.055C152.6 128.058 152.139 127.987 152.653 127.781C153.435 127.467 153.403 127.05 152.406 124.733L151.824 123.373L146.175 123.54L145.47 125.213C144.735 126.958 144.767 127.679 145.593 127.899ZM54.7437 114.922C54.0853 115.016 54.0823 115.043 53.9354 121.697L53.7884 128.381L48.0569 122.958C44.903 119.975 42.2254 117.529 42.1049 117.523C41.9844 117.518 41.8844 119.604 41.8844 122.162C41.8844 127.02 42.0226 127.611 43.2071 127.89C43.5304 127.967 42.8015 128.04 41.5905 128.058C39.6329 128.084 39.4683 128.046 40.1209 127.714L40.8557 127.344V120.812C40.8557 117.221 40.935 114.281 41.035 114.281C41.1349 114.281 43.8155 116.739 46.9929 119.743L52.7744 125.204L52.6921 120.11C52.6127 115.078 52.6039 115.016 51.9514 114.922C50.5494 114.722 51.3841 114.428 53.3475 114.428C55.311 114.428 56.1457 114.722 54.7437 114.922ZM139.688 114.922C139.03 115.016 139.027 115.043 138.88 121.715L138.733 128.416L133.04 123.038C129.909 120.081 127.232 117.618 127.088 117.565C126.944 117.509 126.829 119.552 126.829 122.138C126.829 127.02 126.964 127.611 128.152 127.89C128.475 127.967 127.681 128.025 126.388 128.023C125.095 128.02 124.325 127.961 124.677 127.89C125.941 127.646 126.003 127.285 125.9 120.51L125.8 114.07L127.311 115.425C128.14 116.171 130.823 118.682 133.269 121.009L137.719 125.239L137.637 120.128C137.557 115.078 137.548 115.016 136.896 114.922C135.494 114.722 136.329 114.428 138.292 114.428C140.255 114.428 141.09 114.722 139.688 114.922ZM60.6486 127.899C60.9161 127.97 60.0784 128.037 58.7852 128.049C56.5925 128.072 56.4955 128.046 57.3243 127.684C58.1032 127.346 58.5823 126.506 61.1277 121.009C62.7296 117.553 64.1258 114.617 64.2345 114.487C64.3404 114.358 65.6483 116.936 67.1385 120.219C70.1983 126.953 70.4687 127.438 71.3681 127.799C71.8208 127.981 71.3181 128.061 69.6604 128.07C67.9262 128.075 67.4442 127.999 67.8234 127.779C68.5053 127.382 68.4759 127.008 67.6029 125.036L66.8652 123.373L64.0464 123.455L61.2306 123.54L60.5252 125.213C59.7904 126.958 59.8227 127.679 60.6486 127.899ZM172.534 121.85C172.534 125.448 172.47 128.384 172.387 128.378C172.305 128.372 169.727 125.93 166.656 122.952C163.584 119.972 160.971 117.532 160.851 117.526C160.73 117.521 160.63 119.681 160.63 122.329C160.63 127.344 160.683 127.573 161.953 127.884C162.276 127.964 161.483 128.025 160.19 128.023C158.896 128.02 158.135 127.958 158.499 127.887C159.719 127.655 159.834 126.923 159.69 120.272L159.558 114.017L163.361 117.603C165.454 119.575 168.143 122.097 169.342 123.205L171.52 125.218L171.438 120.266C171.362 115.445 171.341 115.301 170.697 115.019C169.639 114.555 169.91 114.428 171.947 114.428C173.983 114.428 174.254 114.558 173.196 115.019C172.537 115.307 172.534 115.351 172.534 121.85ZM259.243 127.89C259.566 127.967 258.705 128.04 257.332 128.058C255.136 128.084 254.922 128.043 255.568 127.717L256.303 127.344V115.016L255.642 114.922C254.199 114.716 255.101 114.428 257.185 114.428C258.396 114.428 259.389 114.496 259.389 114.578C259.389 114.661 259.093 114.861 258.728 115.019C258.117 115.29 258.061 115.525 257.982 118.176L257.899 121.042H266.464L266.382 118.176C266.303 115.525 266.247 115.29 265.635 115.019C265.271 114.861 264.974 114.661 264.974 114.578C264.974 114.496 265.968 114.428 267.179 114.428C269.262 114.428 270.165 114.716 268.722 114.922L268.06 115.016V127.344L268.795 127.717C269.445 128.043 269.26 128.084 267.179 128.07C265.885 128.058 265.024 127.978 265.268 127.893C266.206 127.558 266.444 126.809 266.444 124.219V121.63H257.92V124.219C257.92 126.926 258.176 127.64 259.243 127.89ZM88.6921 127.887C89.0566 127.958 88.2277 128.031 86.8551 128.052C84.6624 128.084 84.4478 128.043 85.0915 127.717L85.8263 127.344V115.016L85.165 114.922C84.8005 114.869 84.5037 114.737 84.5037 114.628C84.5037 114.52 85.5148 114.473 86.7522 114.525C88.7244 114.614 88.9125 114.667 88.2953 114.975C87.634 115.304 87.584 115.501 87.5046 118.185L87.4223 121.042H95.9873L95.905 118.176C95.8257 115.525 95.7698 115.29 95.1585 115.019C94.794 114.861 94.4971 114.661 94.4971 114.578C94.4971 114.496 95.4877 114.428 96.7016 114.428C97.9126 114.428 98.906 114.528 98.906 114.649C98.906 114.769 98.6444 114.869 98.324 114.869C97.4834 114.869 97.407 115.513 97.5011 121.768L97.5834 127.344L98.3182 127.717C98.9707 128.046 98.7885 128.087 96.7016 128.087C94.6147 128.087 94.4325 128.046 95.085 127.717C95.7845 127.364 95.8227 127.202 95.905 124.481L95.9873 121.612L91.7901 121.694L87.5899 121.777L87.5046 124.199C87.4106 126.85 87.6839 127.693 88.6921 127.887ZM233.862 122.068C233.921 125.545 233.903 128.384 233.821 128.378C233.739 128.369 231.158 125.927 228.086 122.949C225.015 119.969 222.402 117.529 222.281 117.523C222.161 117.518 222.061 119.681 222.061 122.329C222.061 127.344 222.114 127.573 223.384 127.884C223.707 127.964 222.913 128.025 221.62 128.023C220.327 128.02 219.565 127.958 219.93 127.887C221.141 127.655 221.256 126.923 221.129 120.283L221.006 114.035L224.8 117.612C226.887 119.578 229.574 122.097 230.773 123.205L232.951 125.218L232.869 120.266C232.792 115.445 232.772 115.301 232.128 115.019C231.02 114.534 231.37 114.423 233.598 114.555C234.77 114.625 235.44 114.734 235.088 114.793C233.809 115.016 233.747 115.393 233.862 122.068ZM248.259 127.94C247.533 128.187 246.136 128.381 245.155 128.369C241.933 128.331 239.843 127.144 238.627 124.66C237.965 123.308 237.883 122.817 237.977 120.777C238.068 118.758 238.2 118.273 238.965 117.171C240.293 115.254 242.415 114.281 245.26 114.284C249.22 114.287 250.492 114.913 250.892 117.065C251.201 118.714 251.027 119.161 250.56 117.923C250.09 116.677 248.84 115.495 247.65 115.163C245.399 114.537 242.774 115.002 241.366 116.277C238.735 118.655 239.038 124.919 241.869 126.659C244.202 128.093 247.259 128.017 249.284 126.474C250.219 125.759 250.278 125.609 250.278 123.958C250.278 122.409 250.198 122.168 249.616 121.932C249.137 121.741 249.561 121.671 251.16 121.677C252.503 121.685 253.076 121.768 252.629 121.891C251.959 122.076 251.886 122.259 251.806 123.91C251.727 125.595 251.645 125.789 250.648 126.609C250.057 127.094 248.982 127.693 248.259 127.94ZM23.5082 126.039C23.0497 127.091 22.5911 128.052 22.4883 128.175C22.3824 128.299 21.0657 125.653 19.5637 122.297C16.3864 115.21 16.1982 114.869 15.4252 114.869C15.1048 114.869 14.8433 114.769 14.8433 114.649C14.8433 114.528 15.8632 114.473 17.1124 114.528C18.7613 114.599 19.2433 114.705 18.8759 114.91C18.5967 115.066 18.3704 115.316 18.3704 115.469C18.3704 115.81 22.209 125.216 22.4736 125.524C22.5794 125.648 23.6405 123.414 24.8338 120.566C26.9118 115.61 26.9824 115.366 26.4533 114.981C25.9654 114.622 26.1388 114.578 27.9406 114.593C29.5013 114.608 29.8217 114.675 29.2985 114.887C28.6519 115.146 26.1623 119.942 23.5082 126.039ZM206.697 127.899C205.351 128.537 203.082 128.525 201.78 127.876C200.878 127.426 200.74 127.208 200.66 126.115C200.61 125.43 200.707 124.636 200.872 124.351C201.125 123.919 201.175 123.993 201.183 124.783C201.189 125.41 201.486 126.062 202.05 126.694C202.785 127.52 203.103 127.655 204.278 127.655C205.454 127.655 205.772 127.52 206.506 126.694C207.127 126 207.365 125.433 207.365 124.645C207.365 123.655 207.094 123.29 204.29 120.524C200.889 117.168 200.481 116.342 201.242 114.346C201.883 112.662 203.217 111.93 205.654 111.93C207.914 111.93 208.055 112.054 207.888 113.882C207.785 115.013 207.782 115.013 207.447 114.237C206.674 112.462 204.766 112.021 203.273 113.279C202.532 113.902 202.368 114.258 202.368 115.254C202.368 116.407 202.506 116.598 205.187 119.114C208.164 121.912 208.837 122.849 208.828 124.187C208.817 125.639 207.826 127.361 206.697 127.899ZM79.7127 127.814C78.634 128.472 76.4236 128.557 74.8041 128.005C73.8224 127.67 73.7724 127.585 73.6872 126.112C73.6313 125.171 73.7195 124.569 73.9076 124.569C74.0781 124.569 74.2163 124.942 74.2163 125.401C74.2163 127.185 76.647 128.269 78.7133 127.405C79.9008 126.909 80.5357 125.783 80.2564 124.666C80.1624 124.296 78.8632 123.026 77.3113 121.791C74.2456 119.349 73.9223 118.928 73.9223 117.359C73.9223 116.524 74.1487 116.054 74.9217 115.281C75.8946 114.308 75.9857 114.281 78.3018 114.281H80.6826L80.6591 115.678C80.6385 116.915 80.6033 116.989 80.3564 116.307C79.5657 114.155 75.098 114.593 75.098 116.821C75.098 117.997 75.5007 118.473 78.2812 120.577C79.7244 121.674 81.0559 122.894 81.2352 123.29C81.973 124.901 81.3204 126.832 79.7127 127.814ZM72.1823 138.995C71.5944 139.58 71.0272 139.853 70.3952 139.853C69.7633 139.853 69.196 139.58 68.6082 138.995C66.5801 136.964 68.4083 133.169 71.0889 133.842C73.1199 134.354 73.7665 137.408 72.1823 138.995ZM103.626 139.55C102.615 140.091 101.545 139.891 100.646 138.995C99.0618 137.408 99.7084 134.354 101.739 133.842C103.394 133.428 105.078 134.903 105.078 136.767C105.078 137.757 104.344 139.165 103.626 139.55ZM216.191 127.77C216.744 127.99 216.291 128.055 214.272 128.037C212.817 128.025 211.915 127.961 212.267 127.89C213.484 127.655 213.552 127.264 213.469 121.004L213.39 115.016L212.582 114.922C210.871 114.725 211.888 114.428 214.272 114.428C215.645 114.428 216.77 114.528 216.77 114.649C216.77 114.769 216.532 114.869 216.241 114.869C215.107 114.869 215.007 115.378 215.013 121.174C215.013 124.254 215.115 126.932 215.239 127.126C215.362 127.32 215.791 127.608 216.191 127.77ZM36.3939 127.89C36.7466 127.961 35.7796 128.023 34.2424 128.031C32.2143 128.04 31.6852 127.975 32.3054 127.79C32.7786 127.649 33.2724 127.361 33.4047 127.152C33.7603 126.591 33.7133 116.116 33.3488 115.437C33.1842 115.125 32.7874 114.869 32.467 114.869C32.1496 114.869 31.8909 114.769 31.8909 114.649C31.8909 114.528 32.9814 114.481 34.3158 114.543C35.8207 114.617 36.4615 114.731 36.0059 114.852L35.2711 115.043L35.1917 121.018C35.1094 127.264 35.177 127.655 36.3939 127.89ZM186.784 139.098C187.06 139.832 187.037 139.853 185.87 139.853C184.897 139.853 184.703 139.765 184.847 139.389C184.947 139.133 185.026 137.81 185.026 136.449V133.975H186.663C187.563 133.975 188.553 134.113 188.868 134.28C189.617 134.68 189.594 135.888 188.827 136.426C188.442 136.696 188.333 136.926 188.533 137.049C188.794 137.211 190.023 139.447 190.023 139.762C190.023 139.812 189.623 139.853 189.132 139.853C188.539 139.853 188.189 139.68 188.083 139.339C187.698 138.095 187.069 136.914 186.796 136.914C186.417 136.914 186.408 138.116 186.784 139.098ZM216.488 139.286C216.764 139.803 216.685 139.853 215.574 139.853C214.583 139.853 214.389 139.765 214.533 139.389C214.633 139.133 214.713 137.81 214.713 136.449V133.975H216.456C218.889 133.975 219.904 135.074 218.543 136.241C218.061 136.652 218.025 136.817 218.334 137.193C218.537 137.443 218.934 138.154 219.21 138.768L219.718 139.891L218.795 139.797C218.005 139.718 217.805 139.524 217.396 138.407C216.806 136.805 216.182 136.488 216.182 137.79C216.182 138.298 216.321 138.971 216.488 139.286ZM16.9683 138.383L17.1094 139.853H15.9925C14.8815 139.853 14.8756 139.847 15.1783 138.983C15.3429 138.504 15.437 137.181 15.3811 136.044L15.2841 133.975H16.0924C16.8361 133.975 16.9007 134.066 16.9007 135.118C16.9007 135.894 17.0506 136.32 17.3681 136.443C18.1352 136.737 18.4321 136.323 18.3175 135.115C18.2116 134.019 18.241 133.975 19.0964 133.975H19.987V139.853H19.0758H18.1617L18.3028 138.383C18.4438 136.94 18.4291 136.914 17.6355 136.914C16.8419 136.914 16.8273 136.94 16.9683 138.383ZM5.5258 121.556C5.41117 121.835 6.04899 121.924 8.1682 121.924H10.9634L9.6584 118.482C8.93828 116.589 8.30634 114.996 8.25344 114.943C8.19759 114.887 7.59798 116.271 6.91607 118.014C6.23417 119.76 5.6081 121.353 5.5258 121.556ZM113.273 118.414L111.915 121.924H114.699C117.229 121.924 117.467 121.877 117.297 121.409C116.071 118.105 114.951 115.272 114.807 115.107C114.71 114.993 114.02 116.483 113.273 118.414ZM156.289 138.383L156.43 139.853H155.287C154.22 139.853 154.167 139.812 154.47 139.245C154.655 138.895 154.755 137.64 154.699 136.305L154.605 133.975H155.413C156.175 133.975 156.222 134.051 156.222 135.297C156.222 136.62 156.357 136.776 157.227 136.441C157.541 136.32 157.691 135.891 157.691 135.118C157.691 134.066 157.756 133.975 158.499 133.975H159.308L159.214 136.305C159.158 137.64 159.258 138.895 159.443 139.245C159.746 139.812 159.693 139.853 158.626 139.853H157.482L157.624 138.383C157.765 136.94 157.75 136.914 156.956 136.914C156.163 136.914 156.148 136.94 156.289 138.383ZM171.517 139.286C171.794 139.803 171.714 139.853 170.603 139.853C169.613 139.853 169.419 139.765 169.563 139.389C169.663 139.133 169.742 137.81 169.742 136.449V133.975H170.574C171.329 133.975 171.391 134.054 171.276 134.853C171.082 136.167 171.335 136.57 172.243 136.396C172.958 136.261 173.019 136.144 172.922 135.112C172.82 134.039 172.858 133.975 173.628 133.975H174.445V136.449C174.445 137.81 174.524 139.133 174.624 139.389C174.768 139.765 174.574 139.853 173.584 139.853C172.473 139.853 172.393 139.803 172.67 139.286C172.837 138.971 172.975 138.31 172.975 137.816C172.975 137.011 172.881 136.914 172.094 136.914C171.306 136.914 171.212 137.011 171.212 137.816C171.212 138.31 171.35 138.971 171.517 139.286ZM141.058 136.693C140.99 136.764 140.693 137.528 140.4 138.392C140.106 139.256 139.794 139.838 139.706 139.688C139.618 139.536 139.25 138.486 138.886 137.355C138.521 136.223 138.039 135 137.81 134.636C137.407 133.989 137.425 133.975 138.598 133.975C139.306 133.975 139.723 134.092 139.618 134.263C139.391 134.627 140.07 136.94 140.352 136.764C140.467 136.693 140.732 136.035 140.934 135.306C141.14 134.574 141.411 133.975 141.54 133.975C141.666 133.975 142.028 134.736 142.342 135.665L142.916 137.355L143.268 136.076C143.462 135.371 143.55 134.609 143.465 134.386C143.356 134.101 143.533 133.975 144.041 133.975C144.744 133.975 144.758 134.007 144.362 134.783C144.135 135.227 143.642 136.549 143.268 137.722C142.892 138.895 142.504 139.853 142.404 139.853C142.301 139.853 141.987 139.115 141.702 138.21C141.419 137.308 141.128 136.626 141.058 136.693ZM76.2649 139.25C76.5677 139.812 76.5059 139.853 75.3714 139.853C74.3809 139.853 74.1869 139.765 74.3309 139.389C74.4308 139.133 74.5102 137.81 74.5102 136.449V133.975H76.2296C77.52 133.975 78.0667 134.107 78.4341 134.512C79.3835 135.565 78.6927 136.767 77.0086 136.99C76.3149 137.081 76.1062 137.269 76.0357 137.878C75.9857 138.301 76.0886 138.918 76.2649 139.25ZM58.6499 139.286C58.9262 139.803 58.8469 139.853 57.7358 139.853C56.7453 139.853 56.5513 139.765 56.6953 139.389C56.7953 139.133 56.8746 137.81 56.8746 136.449V133.975H58.4266C61.7097 133.975 62.3946 136.394 59.2995 137.052C58.5324 137.214 58.3443 137.399 58.3443 137.987C58.3443 138.386 58.4824 138.971 58.6499 139.286ZM34.3158 138.448C34.451 139.853 34.451 139.853 33.5369 139.853H32.6258V133.975H34.1894C36.1911 133.975 36.8877 134.345 36.8877 135.418C36.8877 136.446 36.4086 136.873 35.1476 136.97L34.1806 137.043L34.3158 138.448ZM107.45 139.436C107.736 139.78 107.636 139.853 106.868 139.853C106.019 139.853 105.969 139.8 106.266 139.245C106.451 138.895 106.551 137.64 106.495 136.305L106.401 133.975H107.162C107.747 133.975 108.159 134.315 108.926 135.444C109.479 136.252 110.002 136.914 110.09 136.914C110.351 136.914 110.031 134.742 109.711 134.342C109.487 134.063 109.649 133.975 110.393 133.975C111.151 133.975 111.289 134.054 111.016 134.327C110.795 134.548 110.663 135.647 110.663 137.266C110.663 138.689 110.563 139.847 110.443 139.841C110.322 139.832 109.561 138.889 108.753 137.743L107.283 135.656L107.195 137.337C107.142 138.325 107.248 139.192 107.45 139.436ZM62.0389 121.703L61.5686 122.805H64.0729C65.4484 122.805 66.5742 122.732 66.5742 122.641C66.5742 122.335 64.4697 117.368 64.2375 117.127C64.1111 116.994 63.6702 117.723 63.2558 118.743C62.8443 119.766 62.2946 121.098 62.0389 121.703ZM146.61 122.438C146.496 122.714 147.08 122.805 148.988 122.805C150.381 122.805 151.519 122.764 151.519 122.714C151.519 122.461 149.379 117.335 149.191 117.136C149.012 116.95 148.097 118.831 146.61 122.438ZM89.615 139.389C89.4739 139.753 88.9743 139.853 87.2548 139.853C85.1356 139.853 85.0798 139.835 85.3972 139.245C85.5824 138.895 85.6823 137.64 85.6265 136.305L85.5324 133.975H87.3694C88.3805 133.975 89.2065 134.095 89.2065 134.245C89.2065 134.392 89.2976 134.753 89.4093 135.044C89.5856 135.5 89.4945 135.482 88.7832 134.921C87.584 133.977 87.149 134.077 87.149 135.297C87.149 136.091 87.2695 136.326 87.6781 136.326C87.969 136.326 88.3658 136.167 88.5598 135.973C88.8332 135.7 88.9125 135.873 88.9125 136.755C88.9125 137.834 88.8861 137.863 88.3747 137.399C87.4841 136.596 87.1049 136.796 87.2048 138.016C87.3224 139.444 88.2542 139.677 89.1712 138.507C89.7385 137.787 89.7943 137.769 89.7943 138.319C89.7943 138.651 89.715 139.133 89.615 139.389ZM113.379 139.486C113.602 139.765 113.452 139.853 112.756 139.853C111.803 139.853 111.615 139.606 112.156 139.065C112.347 138.874 112.435 137.807 112.377 136.361C112.28 133.983 112.283 133.975 113.014 133.983C113.555 133.989 114.037 134.392 114.851 135.512L115.954 137.031V135.856C115.954 135.209 115.795 134.521 115.601 134.327C115.328 134.054 115.472 133.975 116.248 133.975C117.024 133.975 117.168 134.054 116.894 134.327C116.674 134.548 116.542 135.647 116.542 137.266C116.542 138.689 116.442 139.85 116.321 139.844C116.201 139.841 115.674 139.212 115.151 138.448C114.628 137.687 113.89 136.679 113.511 136.208L112.823 135.356L112.953 137.237C113.026 138.272 113.217 139.283 113.379 139.486ZM122.449 138.727L122.25 139.706L118.158 139.877V133.951L120.069 134.036C121.856 134.116 121.985 134.168 122.082 134.856L122.182 135.591L121.474 134.93C120.398 133.925 119.775 134.06 119.775 135.297C119.775 136.091 119.895 136.326 120.304 136.326C120.595 136.326 120.992 136.167 121.186 135.973C121.459 135.7 121.535 135.879 121.529 136.781C121.524 137.713 121.462 137.84 121.221 137.428C121.056 137.146 120.657 136.914 120.33 136.914C119.828 136.914 119.754 137.078 119.831 138.013C119.948 139.418 120.701 139.615 121.829 138.533L122.649 137.749L122.449 138.727ZM42.4929 139.436C42.778 139.78 42.678 139.853 41.9109 139.853C41.0614 139.853 41.0115 139.8 41.3083 139.245C41.4935 138.895 41.5934 137.64 41.5376 136.305L41.4435 133.975H42.2166C42.8103 133.975 43.213 134.307 43.9801 135.435C44.5239 136.241 45.0618 136.902 45.1735 136.905C45.4527 136.917 45.1 134.792 44.7473 134.342C44.5268 134.063 44.6914 133.975 45.4115 133.975C46.161 133.975 46.2962 134.057 46.0464 134.357C45.873 134.568 45.6908 135.923 45.6437 137.369L45.5585 140L42.3253 135.629L42.2371 137.325C42.1842 138.322 42.29 139.192 42.4929 139.436ZM236.475 139.286C236.745 139.791 236.675 139.853 235.849 139.853C235.073 139.853 234.979 139.782 235.273 139.43C235.505 139.151 235.593 138.142 235.532 136.488L235.435 133.975H236.181C236.737 133.975 237.225 134.368 238.092 135.518C239.238 137.037 239.256 137.049 239.35 136.235C239.403 135.779 239.235 135.083 238.976 134.692C238.515 133.986 238.521 133.975 239.414 133.975C240.07 133.975 240.252 134.077 240.081 134.342C239.949 134.545 239.779 135.9 239.696 137.355L239.549 140L236.169 135.371V137.043C236.169 137.963 236.307 138.971 236.475 139.286ZM204.425 139.577C204.425 139.73 204.011 139.853 203.508 139.853C202.741 139.853 202.647 139.782 202.941 139.43C203.173 139.151 203.261 138.142 203.2 136.488L203.103 133.975H203.885C204.487 133.975 204.922 134.327 205.789 135.518C206.789 136.887 206.927 136.984 207.015 136.382C207.071 136.008 206.98 135.315 206.815 134.839C206.533 134.033 206.562 133.975 207.25 133.975C207.77 133.975 207.917 134.083 207.75 134.342C207.617 134.545 207.447 135.9 207.365 137.355L207.218 140L203.838 135.371V137.155C203.838 138.134 203.97 139.018 204.131 139.118C204.293 139.218 204.425 139.424 204.425 139.577ZM213.037 139.633C212.97 139.753 211.982 139.853 210.842 139.853C209.075 139.853 208.796 139.785 208.949 139.389C209.049 139.133 209.128 137.81 209.128 136.449V133.975H211.039C212.887 133.975 212.949 133.998 212.949 134.721V135.468L212.306 134.868C211.277 133.907 210.598 134.08 210.598 135.297C210.598 136.091 210.718 136.326 211.127 136.326C211.418 136.326 211.815 136.167 212.009 135.973C212.282 135.7 212.361 135.844 212.361 136.62C212.361 137.396 212.282 137.54 212.009 137.266C211.386 136.643 210.598 136.843 210.598 137.625C210.598 139.433 211.388 139.741 212.735 138.457L213.581 137.649L213.372 138.53C213.258 139.015 213.105 139.512 213.037 139.633ZM198.547 139.577C198.547 139.73 198.132 139.853 197.63 139.853C196.863 139.853 196.769 139.782 197.063 139.43C197.295 139.151 197.383 138.142 197.321 136.488L197.224 133.975H198.006C198.612 133.975 199.047 134.324 199.917 135.515L201.045 137.055L201.136 136.117C201.186 135.6 201.083 134.906 200.904 134.577C200.619 134.042 200.669 133.975 201.345 133.975C201.886 133.975 202.039 134.08 201.871 134.342C201.739 134.545 201.568 135.9 201.486 137.355L201.339 140L197.959 135.315V137.125C197.959 138.122 198.091 139.018 198.253 139.118C198.415 139.218 198.547 139.424 198.547 139.577ZM180.118 139.633C180.05 139.753 179.063 139.853 177.922 139.853C176.156 139.853 175.876 139.785 176.029 139.389C176.129 139.133 176.208 137.804 176.208 136.435V133.945L178.046 134.033C179.753 134.116 179.888 134.174 179.985 134.856L180.085 135.591L179.377 134.93C178.301 133.925 177.678 134.06 177.678 135.297C177.678 136.091 177.799 136.326 178.207 136.326C178.498 136.326 178.895 136.167 179.089 135.973C179.362 135.7 179.439 135.879 179.433 136.781C179.427 137.713 179.365 137.84 179.124 137.428C178.96 137.146 178.56 136.914 178.234 136.914C177.731 136.914 177.658 137.078 177.734 138.013C177.852 139.442 178.604 139.612 179.789 138.483L180.661 137.649L180.453 138.53C180.338 139.015 180.185 139.512 180.118 139.633ZM227.701 139.486C227.449 139.688 226.746 139.853 226.146 139.853C223.24 139.853 222.528 135.121 225.262 133.986C225.944 133.704 226.376 133.701 227.187 133.969C228.227 134.313 228.407 134.651 228.042 135.597C227.892 135.991 227.772 135.903 227.46 135.159C227.161 134.445 226.914 134.248 226.408 134.321C225.038 134.518 224.471 137.672 225.567 139.012C226.34 139.959 226.867 139.415 226.717 137.822C226.602 136.643 226.62 136.62 227.537 136.62C228.466 136.62 228.471 136.629 228.319 137.869C228.233 138.557 227.957 139.283 227.701 139.486ZM66.3684 139.633C66.3008 139.753 65.3132 139.853 64.1728 139.853C62.4063 139.853 62.1271 139.785 62.2799 139.389C62.3799 139.133 62.4592 137.804 62.4592 136.435V133.945L64.2963 134.033C66.004 134.116 66.1392 134.174 66.2362 134.856L66.3361 135.591L65.6277 134.93C64.552 133.925 63.9289 134.06 63.9289 135.297C63.9289 136.091 64.0494 136.326 64.4579 136.326C64.7489 136.326 65.1457 136.167 65.3397 135.973C65.613 135.7 65.6924 135.844 65.6924 136.62C65.6924 137.396 65.613 137.54 65.3397 137.266C65.1457 137.072 64.7401 136.914 64.4403 136.914C63.9876 136.914 63.9083 137.105 63.9847 138.013C64.1023 139.442 64.8547 139.612 66.0392 138.483L66.9122 137.649L66.7035 138.53C66.5889 139.015 66.436 139.512 66.3684 139.633ZM233.906 139.633C233.839 139.753 232.851 139.853 231.71 139.853C229.944 139.853 229.665 139.785 229.818 139.389C229.918 139.133 229.997 137.81 229.997 136.449V133.975H231.872C233.642 133.975 233.756 134.016 233.888 134.709C234.059 135.597 233.988 135.615 233.23 134.856C232.907 134.533 232.378 134.268 232.054 134.268C231.584 134.268 231.467 134.465 231.467 135.247C231.467 136.517 231.705 136.723 232.545 136.173C233.212 135.735 233.23 135.747 233.23 136.673C233.23 137.408 233.151 137.54 232.877 137.266C232.254 136.643 231.467 136.843 231.467 137.625C231.467 139.427 232.351 139.771 233.65 138.469L234.447 137.675L234.238 138.542C234.124 139.021 233.974 139.512 233.906 139.633ZM51.2695 139.577C51.0373 139.724 50.3642 139.847 49.7734 139.847C48.3096 139.856 47.1751 138.548 47.1751 136.861C47.1751 135.909 47.3691 135.485 48.1744 134.68C49.2326 133.622 49.9145 133.469 51.1284 134.022C51.8926 134.371 52.1748 135.521 51.584 135.885C51.4223 135.985 51.29 135.812 51.29 135.497C51.29 134.78 50.5993 134.189 49.9145 134.321C49.1003 134.477 48.6065 135.726 48.7388 137.302C48.8799 138.989 49.5441 139.859 50.2466 139.277C50.7727 138.839 50.8345 138.004 50.3965 137.187C50.1202 136.673 50.1966 136.62 51.2342 136.62H52.3746L52.0337 137.966C51.8456 138.707 51.5017 139.43 51.2695 139.577ZM25.7244 139.098C25.4569 139.809 25.3217 139.853 23.37 139.853H21.2979L21.5242 139.045C21.6476 138.601 21.7505 137.278 21.7505 136.105V133.975H23.5523C25.2335 133.975 25.3658 134.024 25.4951 134.698L25.6333 135.418L24.9014 134.845C24.4987 134.527 23.9138 134.268 23.6022 134.268C23.129 134.268 23.0526 134.448 23.129 135.371C23.2054 136.288 23.3171 136.455 23.808 136.37C24.1313 136.314 24.4928 136.114 24.6104 135.929C24.7309 135.744 24.8308 136.047 24.8308 136.605C24.8367 137.393 24.7574 137.54 24.484 137.266C23.8609 136.643 23.0732 136.843 23.0732 137.625C23.0732 139.415 24.0725 139.803 25.2923 138.486C26.0565 137.663 26.1976 137.86 25.7244 139.098ZM254.099 139.265C253.42 139.944 251.559 140.065 250.76 139.48C250.363 139.189 250.307 138.942 250.516 138.38L250.783 137.657L250.992 138.316C251.274 139.212 252.238 139.709 252.794 139.25C253.599 138.58 253.291 137.778 252.035 137.284C250.254 136.585 250.051 135.109 251.595 134.098C252.609 133.434 254.202 133.836 254.34 134.792C254.457 135.618 253.928 135.653 253.714 134.833C253.476 133.919 252.188 134.168 252.188 135.13C252.188 135.673 252.397 135.9 253.07 136.079C254.684 136.511 255.213 138.151 254.099 139.265ZM248.306 139.333C247.356 140.382 245.014 139.753 244.972 138.436C244.964 138.166 244.858 137.049 244.737 135.959L244.517 133.975H245.643C246.668 133.975 246.745 134.027 246.469 134.542C246.301 134.856 246.163 135.791 246.163 136.62C246.163 138.357 246.548 139.265 247.292 139.265C248.214 139.265 248.514 138.619 248.514 136.62C248.514 135.503 248.364 134.53 248.162 134.327C247.888 134.054 248.026 133.975 248.785 133.975C249.525 133.975 249.693 134.063 249.472 134.342C249.311 134.545 249.09 135.632 248.979 136.761C248.858 137.981 248.588 139.021 248.306 139.333ZM84.0246 139.192C83.8629 139.797 83.6748 139.853 81.7937 139.853C80.0389 139.853 79.7656 139.785 79.9155 139.389C80.0154 139.133 80.0948 137.81 80.0948 136.449V133.975H81.7114V136.546C81.7114 138.948 81.7525 139.124 82.3374 139.206C82.7401 139.265 83.1898 139.012 83.5866 138.507C84.2097 137.716 84.3567 137.948 84.0246 139.192ZM167.094 139.262C167.385 139.806 167.323 139.853 166.3 139.853H165.186L165.289 136.987L165.389 134.121L164.681 134.783C163.775 135.629 163.62 135.615 163.793 134.709C163.925 134.007 164.022 133.975 166.068 133.975C168.102 133.975 168.211 134.01 168.343 134.698L168.481 135.418L167.714 134.815L166.95 134.213L166.865 136.441C166.818 137.666 166.92 138.936 167.094 139.262ZM98.0448 139.547C96.5928 140.326 94.8587 139.671 94.2091 138.107C93.2009 135.673 95.4818 133.043 97.7744 133.992C98.4651 134.28 98.6209 134.492 98.4916 134.974C98.4005 135.315 98.3182 135.723 98.3093 135.885C98.3035 136.047 98.1095 135.75 97.8802 135.224C97.4041 134.13 96.4576 133.939 95.9785 134.836C95.4465 135.829 95.5993 138.519 96.2195 139.08C96.8985 139.694 97.6774 139.43 97.9126 138.501C98.0066 138.116 98.2065 137.872 98.3505 137.963C98.8178 138.251 98.6268 139.236 98.0448 139.547ZM132.425 139.286C132.699 139.8 132.625 139.853 131.617 139.853H130.503L130.606 136.987L130.706 134.121L129.18 135.547V134.759C129.18 133.977 129.192 133.975 131.385 133.975C132.596 133.975 133.589 134.095 133.589 134.245C133.589 134.392 133.677 134.756 133.783 135.053C133.948 135.509 133.866 135.488 133.251 134.93C132.849 134.565 132.431 134.268 132.322 134.268C131.999 134.268 132.087 138.66 132.425 139.286ZM31.1238 139.389C30.9857 139.75 30.4948 139.853 28.89 139.853C27.1323 139.853 26.8589 139.785 27.0088 139.389C27.1088 139.133 27.1881 137.81 27.1881 136.449V133.975H27.9964H28.8047L28.7048 135.909C28.6489 136.973 28.6872 138.163 28.7841 138.554C29.0222 139.503 29.9216 139.474 30.6947 138.492C31.2531 137.781 31.3031 137.766 31.3031 138.319C31.3031 138.651 31.2237 139.133 31.1238 139.389ZM127.505 139.533C126.223 140.118 125.174 139.921 124.357 138.948C122.52 136.767 124.316 133.187 126.92 133.839C127.94 134.095 128.249 134.556 127.993 135.444L127.784 136.179L127.423 135.224C127.035 134.189 126.271 133.966 125.653 134.709C125.039 135.45 124.945 137.59 125.48 138.627C126.085 139.8 126.685 139.809 127.384 138.66L127.931 137.763L128.069 138.489C128.175 139.042 128.04 139.289 127.505 139.533ZM151.857 136.987L151.96 139.853H150.846C149.837 139.853 149.764 139.8 150.037 139.286C150.375 138.66 150.464 134.268 150.14 134.268C150.031 134.268 149.614 134.565 149.211 134.93C148.597 135.488 148.515 135.509 148.679 135.053C148.785 134.756 148.873 134.386 148.873 134.23C148.873 134.069 149.776 133.986 151.004 134.036C153.027 134.119 153.141 134.16 153.238 134.856L153.338 135.591L151.757 134.121L151.857 136.987ZM143.877 53.7328C143.142 54.4676 141.772 54.4911 141.128 53.7828C140.417 52.995 140.505 51.5136 141.296 50.9581C142.216 50.3115 142.91 50.3879 143.744 51.2197C144.617 52.0956 144.664 52.9451 143.877 53.7328ZM128.469 52.5835C129.507 53.7298 131.538 52.9509 131.526 51.4108C131.517 49.9147 130.25 49.0623 128.954 49.6795C127.952 50.1586 127.69 51.7253 128.469 52.5835ZM69.5076 138.804C69.6839 139.277 70.019 139.559 70.3952 139.559C71.1418 139.559 71.5709 138.524 71.5709 136.729C71.5709 135.121 71.1594 134.268 70.3776 134.268C69.3547 134.268 68.8257 137.017 69.5076 138.804ZM101.572 139.009C101.742 139.33 102.104 139.553 102.371 139.5C103.95 139.198 104.023 134.268 102.451 134.268C102.13 134.268 101.728 134.524 101.563 134.836C101.163 135.579 101.169 138.26 101.572 139.009ZM183.41 133.975V139.853H182.422C181.643 139.853 181.473 139.756 181.614 139.389C181.714 139.133 181.793 137.81 181.793 136.449V133.975H182.601H183.41ZM40.0062 139.389C40.1503 139.765 39.9563 139.853 38.9657 139.853C37.8253 139.853 37.7695 139.815 38.0751 139.245C38.2603 138.895 38.3603 137.64 38.3044 136.305L38.2104 133.975H39.0186H39.8269V136.449C39.8269 137.81 39.9063 139.133 40.0062 139.389ZM243.212 139.245C243.518 139.815 243.462 139.853 242.321 139.853C241.331 139.853 241.137 139.765 241.281 139.389C241.381 139.133 241.46 137.81 241.46 136.449V133.975H242.268H243.077L242.983 136.305C242.927 137.64 243.027 138.895 243.212 139.245ZM195.916 139.43C196.213 139.788 196.075 139.853 195.026 139.853C194.012 139.853 193.815 139.768 193.959 139.389C194.059 139.133 194.138 137.81 194.138 136.449V133.975H195.755L195.658 136.488C195.596 138.142 195.684 139.151 195.916 139.43ZM147.498 139.045C147.701 139.827 147.671 139.853 146.543 139.853C145.379 139.853 145.379 139.853 145.681 138.983C145.846 138.504 145.94 137.181 145.884 136.044C145.787 133.986 145.793 133.975 146.548 133.975C147.298 133.975 147.31 134.007 147.298 136.105C147.292 137.278 147.383 138.601 147.498 139.045ZM75.9798 135.444C75.9798 136.42 76.0798 136.62 76.5618 136.62C77.2819 136.62 77.6787 135.338 77.1526 134.706C76.4707 133.883 75.9798 134.195 75.9798 135.444ZM186.699 136.429C186.987 136.717 187.431 136.52 187.795 135.941C188.171 135.347 187.727 134.468 186.978 134.321C186.608 134.248 186.496 134.457 186.496 135.227C186.496 135.776 186.587 136.32 186.699 136.429ZM216.379 136.423C217.017 137.064 217.837 135.753 217.358 134.856C216.85 133.904 216.182 134.124 216.182 135.247C216.182 135.788 216.271 136.317 216.379 136.423ZM34.2424 135.444C34.2424 136.446 34.3335 136.646 34.7567 136.564C35.13 136.493 35.2711 136.182 35.2711 135.444C35.2711 134.706 35.13 134.395 34.7567 134.324C34.3335 134.242 34.2424 134.442 34.2424 135.444ZM58.3443 135.444C58.3443 136.446 58.4354 136.646 58.8586 136.564C59.2319 136.493 59.373 136.182 59.373 135.444C59.373 134.706 59.2319 134.395 58.8586 134.324C58.4354 134.242 58.3443 134.442 58.3443 135.444Z" fill="white"/>
<path d="M139.05 88.3955C135.664 88.8657 132.393 88.5542 129.756 87.5137C128.907 87.1786 128.895 86.87 129.495 80.1244C129.662 78.2344 129.774 75.7508 129.739 74.6104C129.706 73.4699 129.762 72.4529 129.865 72.3501C129.965 72.2472 131.047 72.3354 132.264 72.544C135.076 73.0261 139.876 72.7704 142.284 72.015C151.104 69.2403 157.209 61.5659 157.888 52.3984C158.097 49.5943 157.5 46.2171 156.201 42.8487C155.322 40.5708 154.893 39.8125 145.705 24.2756C137.678 10.6991 137.448 10.1465 137.202 3.76542C137.04 -0.390691 137.19 -0.728705 138.122 1.70794C139.559 5.46725 144.564 13.9147 152.054 25.222C159.458 36.3971 162.835 43.2161 163.996 49.3386C164.59 52.4689 164.593 58.8089 163.999 61.9304C163.126 66.5333 161.083 71.4918 158.473 75.3363C156.439 78.3344 152.524 82.1348 149.235 84.3128C145.805 86.579 142.46 87.9193 139.05 88.3955ZM133.172 12.8271C132.76 13.6413 132.322 14.3614 132.199 14.432C131.561 14.7935 131.388 14.1851 131.488 11.9571C131.555 10.5051 131.488 9.63511 131.32 9.74092C131.167 9.83498 131.041 9.72035 131.041 9.48521C131.041 9.25007 131.167 9.05608 131.323 9.05608C131.476 9.05608 131.423 8.8327 131.2 8.55935C130.856 8.13315 130.859 8.09789 131.214 8.31245C131.529 8.5035 131.585 8.44177 131.438 8.05967C131.332 7.78338 131.361 7.6276 131.505 7.71578C131.646 7.80396 131.843 7.67169 131.937 7.42186C132.037 7.1632 131.987 7.04563 131.823 7.14851C131.661 7.2455 132.258 5.84641 133.148 4.03289C134.036 2.22231 134.768 0.526359 134.774 0.267705C134.78 -0.111459 134.847 -0.0938245 135.109 0.358821C135.57 1.15536 135.212 6.31375 134.497 9.10017C134.18 10.3376 133.583 12.0159 133.172 12.8271Z" fill="white"/>
<path d="M132.469 14.0851C131.2 16.4571 129.001 20.2076 124.913 27.1442C116.956 40.6442 116.486 41.5054 115.433 44.4741C114.863 46.0818 114.672 47.3163 114.561 50.1086C114.378 54.5704 114.896 57.1452 116.694 60.7311C119.343 66.0129 123.616 69.7223 129.407 71.7651C130.409 72.1178 131.07 72.3353 131.785 72.4676C130.773 72.3147 129.953 72.2618 129.865 72.35C129.762 72.4529 129.706 73.4699 129.739 74.6103C129.774 75.7507 129.662 78.2344 129.495 80.1243C128.895 86.8699 128.907 87.1785 129.756 87.5136C130.074 87.64 130.4 87.7546 130.735 87.8575C127.461 87.0022 124.469 85.5032 121.383 83.1988C112.706 76.7207 107.724 66.6713 107.724 55.6432C107.724 46.5374 110.407 39.9976 120.295 24.9986C125.486 17.1213 126.967 14.7611 130.92 8.08313C131.82 6.56354 132.772 4.78235 133.507 3.29215C133.389 3.53611 133.272 3.783 133.148 4.03284C132.258 5.84636 131.661 7.24545 131.823 7.14845C131.987 7.04558 132.037 7.16315 131.937 7.4218C131.843 7.67164 131.646 7.8039 131.505 7.71573C131.361 7.62755 131.332 7.78332 131.438 8.05961C131.585 8.44172 131.529 8.50345 131.214 8.3124C130.859 8.09783 130.856 8.1331 131.2 8.55929C131.423 8.83264 131.476 9.05603 131.323 9.05603C131.167 9.05603 131.041 9.25001 131.041 9.48516C131.041 9.7203 131.167 9.83493 131.32 9.74087C131.488 9.63506 131.555 10.5051 131.488 11.9571C131.388 14.185 131.561 14.7935 132.199 14.4319C132.246 14.4055 132.343 14.2791 132.469 14.0851ZM132.217 72.5351C133.107 72.6557 134.177 72.6704 136.088 72.6733C137.51 72.6762 138.642 72.6439 139.629 72.5469C137.207 72.8585 134.245 72.882 132.264 72.544C132.249 72.541 132.231 72.5381 132.217 72.5351ZM143.8 71.48C144.453 71.2007 145.152 70.8627 145.955 70.4483C147.965 69.4107 149.755 68.1263 151.304 66.6361C149.197 68.6994 146.663 70.3572 143.8 71.48ZM139.05 88.3954C136.934 88.6893 135.949 88.7363 134.377 88.5424C135.873 88.6658 137.448 88.6158 139.05 88.3954ZM133.801 11.3163C134.065 10.5903 134.324 9.77908 134.497 9.10011C134.295 9.89371 134.112 10.5374 133.801 11.3163ZM134.768 0.314679C134.771 0.291165 134.774 0.270583 134.774 0.252948C134.774 0.20592 134.777 0.164778 134.78 0.132446C134.777 0.170657 134.774 0.214743 134.774 0.26765C134.774 0.279407 134.771 0.297043 134.768 0.314679Z" fill="white"/>
</svg>
